<?xml version="1.0" standalone="no"?>
<!DOCTYPE svg PUBLIC "-//W3C//DTD SVG 1.1//EN" "http://www.w3.org/Graphics/SVG/1.1/DTD/svg11.dtd" >
<svg>
<metadata>
Created by FontForge 20090622 at Thu Jul 13 12:06:42 2017
 By deploy user
&#194;&#169;2015 Now Alt Typeface is a trademark of Alfredo Marco Pradil. All rights reserved.
</metadata>
<defs>
<font id="NowAlt-Medium" horiz-adv-x="0" >
  <font-face 
    font-family="Now Alt Medium"
    font-weight="500"
    font-stretch="normal"
    units-per-em="800"
    panose-1="0 0 6 0 0 0 0 0 0 0"
    ascent="640"
    descent="-160"
    x-height="400"
    cap-height="600"
    bbox="-611 -242 876 912"
    underline-thickness="50"
    underline-position="-50"
    unicode-range="U+0020-U+FB02"
  />
<missing-glyph horiz-adv-x="498" 
d="M75 0v600h348v-600h-348zM146 72h205v456h-205v-456z" />
    <glyph glyph-name="fi" unicode="fi" horiz-adv-x="523" 
d="M182 569v-169h101v-80h-101v-320h-95v320h-67v80h67v181q0 54 40 92.5t96 38.5q41 0 58 -12v-74h-47q-22 0 -37 -15.5t-15 -41.5zM405 471q-23 0 -40 16.5t-17 39.5q0 24 17 40.5t40 16.5t40 -16.5t17 -40.5q0 -23 -17 -39.5t-40 -16.5zM358 0v400h94v-400h-94z" />
    <glyph glyph-name="fl" unicode="fl" horiz-adv-x="514" 
d="M182 569v-169h101v-80h-101v-320h-95v320h-67v80h67v181q0 54 40 92.5t96 38.5q41 0 58 -12v-74h-47q-22 0 -37 -15.5t-15 -41.5zM353 712h95v-712h-95v712z" />
    <glyph glyph-name="f_t.liga" unicode="ft" horiz-adv-x="561" 
d="M535 320h-101v-185q0 -26 15 -41.5t38 -15.5h46v-73q-19 -13 -58 -13q-55 0 -95.5 38.5t-40.5 93.5v196h-157v-320h-95v320h-67v80h67v181q0 54 40 92.5t96 38.5q41 0 58 -12v-74h-47q-22 0 -37 -15.5t-15 -41.5v-169h157v164h95v-164h101v-80z" />
    <glyph glyph-name=".notdef" horiz-adv-x="498" 
d="M75 0v600h348v-600h-348zM146 72h205v456h-205v-456z" />
    <glyph glyph-name=".null" 
 />
    <glyph glyph-name="nonmarkingreturn" horiz-adv-x="266" 
 />
    <glyph glyph-name="space" unicode=" " horiz-adv-x="240" 
 />
    <glyph glyph-name="exclam" unicode="!" horiz-adv-x="263" 
d="M95 189l-11 456h94l-11 -456h-72zM131 -8q-23 0 -39.5 17t-16.5 40t16.5 39.5t39.5 16.5t40 -16.5t17 -39.5t-17 -40t-40 -17z" />
    <glyph glyph-name="quotedbl" unicode="&#x22;" horiz-adv-x="391" 
d="M86 339l-11 269h89l-11 -269h-67zM238 339l-11 269h89l-11 -269h-67z" />
    <glyph glyph-name="numbersign" unicode="#" horiz-adv-x="658" 
d="M149 0l19 135h-113l10 68h112l26 168h-114l11 68h111l20 137h67l-19 -137h142l19 137h68l-19 -137h113l-11 -68h-112l-23 -168h112l-9 -68h-112l-21 -135h-67l19 135h-143l-18 -135h-68zM246 203h141l25 168h-143z" />
    <glyph glyph-name="dollar" unicode="$" horiz-adv-x="454" 
d="M429 164q0 -68 -42.5 -112.5t-110.5 -55.5v-62h-87v62q-56 10 -100.5 43t-66.5 81l84 51q16 -39 49.5 -62t78.5 -23q43 0 70 21t27 57q0 35 -29.5 58t-71 38t-83 33.5t-71 55.5t-29.5 92q0 67 40 110t102 54v62h87v-65q76 -17 122 -74l-69 -63q-41 52 -103 52
q-35 0 -58 -17.5t-23 -51.5q0 -33 29.5 -55.5t71 -37.5t83 -34t71 -58.5t29.5 -98.5z" />
    <glyph glyph-name="percent" unicode="%" horiz-adv-x="643" 
d="M165 336q-49 0 -84 40t-35 96t35 96t84 40t84 -40t35 -96t-35 -96t-84 -40zM69 0l407 600h98l-407 -600h-98zM165 408q19 0 33.5 18.5t14.5 45.5t-14.5 45.5t-33.5 18.5t-33 -18.5t-14 -45.5t14 -45.5t33 -18.5zM478 -8q-49 0 -84 40t-35 96t35 96t84 40q50 0 84.5 -39.5
t34.5 -96.5t-34.5 -96.5t-84.5 -39.5zM478 64q19 0 33 18.5t14 45.5t-14 45.5t-33 18.5t-33 -18.5t-14 -45.5t14 -45.5t33 -18.5z" />
    <glyph glyph-name="ampersand" unicode="&#x26;" horiz-adv-x="561" 
d="M530 342v-85h-60v-77q0 -78 -54 -129t-140 -51q-84 0 -141.5 48t-57.5 121q0 82 67 134q-64 54 -64 136q0 70 46.5 116.5t114.5 44.5h135v-89h-118q-34 -1 -58.5 -21.5t-24.5 -56.5q0 -39 28.5 -65t70.5 -26h102v93h94v-93h60zM274 83q47 0 74.5 27t27.5 70v77h-117
q-38 0 -65.5 -25t-27.5 -61q0 -39 31.5 -63.5t76.5 -24.5z" />
    <glyph glyph-name="quotesingle" unicode="'" horiz-adv-x="239" 
d="M86 371l-11 237h89l-11 -237h-67z" />
    <glyph glyph-name="parenleft" unicode="(" horiz-adv-x="321" 
d="M288 -237q-105 4 -167 118t-62 361t62 362t167 119v-68q-146 -11 -146 -413q0 -400 146 -411v-68z" />
    <glyph glyph-name="parenright" unicode=")" horiz-adv-x="321" 
d="M33 -237v68q32 2 57.5 25.5t46 70t31.5 127t11 188.5q0 109 -11 189.5t-31.5 127.5t-46 70.5t-57.5 25.5v68q104 -4 166.5 -119.5t62.5 -361.5q0 -167 -31.5 -276.5t-81 -154.5t-116.5 -48z" />
    <glyph glyph-name="asterisk" unicode="*" horiz-adv-x="293" 
d="M116 396l-42 25l44 61l-75 -9v49l75 -8l-44 61l42 25l31 -69l31 69l43 -25l-46 -61l76 8v-49l-76 9l46 -61l-43 -25l-31 69z" />
    <glyph glyph-name="plus" unicode="+" horiz-adv-x="645" 
d="M284 0v209h-209v78h209v209h78v-209h209v-78h-209v-209h-78z" />
    <glyph glyph-name="comma" unicode="," horiz-adv-x="205" 
d="M70 -132h-66l100 235h97z" />
    <glyph glyph-name="hyphen" unicode="-" horiz-adv-x="377" 
d="M48 170v76h280v-76h-280z" />
    <glyph glyph-name="period" unicode="." horiz-adv-x="226" 
d="M113 -8q-26 0 -45.5 19.5t-19.5 45.5t19.5 45.5t45.5 19.5t45.5 -19.5t19.5 -45.5t-19.5 -45.5t-45.5 -19.5z" />
    <glyph glyph-name="slash" unicode="/" horiz-adv-x="553" 
d="M-16 -240l496 952h89l-495 -952h-90z" />
    <glyph glyph-name="zero" unicode="0" horiz-adv-x="552" 
d="M276 -8q-106 0 -163 84.5t-57 223.5t57 223.5t163 84.5q105 0 162.5 -85t57.5 -223t-57.5 -223t-162.5 -85zM276 81q63 0 93.5 58.5t30.5 160.5t-30.5 160.5t-93.5 58.5t-93.5 -58.5t-30.5 -160.5t30.5 -160.5t93.5 -58.5z" />
    <glyph glyph-name="one" unicode="1" horiz-adv-x="320" 
d="M128 0v511h-96v89h192v-600h-96z" />
    <glyph glyph-name="two" unicode="2" horiz-adv-x="474" 
d="M190 89h246v-89h-437l243 288q51 60 66.5 87.5t15.5 54.5q0 44 -25.5 66.5t-63.5 22.5q-40 1 -65.5 -25t-22.5 -69h-97q-4 81 52 132.5t138 51.5q77 -1 128.5 -47.5t52.5 -120.5q1 -50 -21 -90t-89 -120z" />
    <glyph glyph-name="three" unicode="3" horiz-adv-x="491" 
d="M238 356q83 3 139.5 -45.5t56.5 -129.5q0 -79 -56 -134t-139 -55q-79 0 -135 50.5t-56 123.5l97 1q0 -35 28 -59t67 -24q43 0 71 29t28 72q0 41 -28 67t-70 26h-159h-3l179 233h-210v89h382z" />
    <glyph glyph-name="four" unicode="4" horiz-adv-x="505" 
d="M457 216v-90h-56v-126h-96v126h-287l262 474h121v-384h56zM149 216h156v290z" />
    <glyph glyph-name="five" unicode="5" horiz-adv-x="506" 
d="M268 402q83 0 136 -57t53 -144q0 -91 -60.5 -150t-158.5 -59q-57 0 -113 21.5t-87 55.5l9 99h14q62 -85 172 -85q59 0 93.5 32.5t34.5 81.5q0 50 -33.5 83t-82.5 33q-61 0 -104 -46l-78 48l30 283h327v-89h-248l-17 -145q47 38 113 38z" />
    <glyph glyph-name="six" unicode="6" horiz-adv-x="530" 
d="M482 205q1 -87 -61 -148.5t-151 -63.5q-90 -2 -155 57t-66 145q-3 68 49 139l201 266h114l-159 -197q15 3 34 3q75 -6 134 -62.5t60 -138.5zM270 79q54 2 87 38t31 87q-2 54 -37.5 88t-89.5 33q-54 -2 -87 -39t-31 -91q2 -52 37.5 -84.5t89.5 -31.5z" />
    <glyph glyph-name="seven" unicode="7" horiz-adv-x="459" 
d="M34 600h407v-68l-291 -532h-108l287 511h-295v89z" />
    <glyph glyph-name="eight" unicode="8" horiz-adv-x="477" 
d="M345 334q45 -24 70.5 -65t25.5 -92q0 -78 -58 -131.5t-145 -53.5q-86 0 -143.5 53.5t-57.5 131.5q0 51 25.5 92t69.5 65q-60 44 -60 119q0 66 47.5 110.5t119.5 44.5q71 0 118.5 -44.5t47.5 -110.5q0 -75 -60 -119zM239 526q-35 0 -59 -24t-24 -59t24 -59t59 -24t58.5 24
t23.5 59t-23.5 59t-58.5 24zM238 76q45 0 75.5 32t30.5 77t-30.5 75t-75.5 30q-44 0 -74.5 -30t-30.5 -75t30.5 -77t74.5 -32z" />
    <glyph glyph-name="nine" unicode="9" horiz-adv-x="530" 
d="M482 405q1 -70 -49 -139l-202 -266h-113l159 197q-15 -3 -34 -3q-75 6 -134 62.5t-60 138.5q-2 87 60.5 148.5t151.5 63.5q90 2 155 -57t66 -145zM270 275q54 2 87 39t31 91q-2 51 -37.5 84t-89.5 32q-54 -2 -87.5 -38t-31.5 -87q2 -54 38 -88t90 -33z" />
    <glyph glyph-name="colon" unicode=":" horiz-adv-x="268" 
d="M134 295q-23 0 -40 16.5t-17 39.5t17 40t40 17t40 -17t17 -40t-17 -39.5t-40 -16.5zM134 -8q-23 0 -40 17t-17 40t17 39.5t40 16.5t40 -17t17 -39q0 -23 -17 -40t-40 -17z" />
    <glyph glyph-name="semicolon" unicode=";" horiz-adv-x="282" 
d="M143 295q-23 0 -40 16.5t-17 39.5t17 40t40 17t40 -17t17 -40t-17 -39.5t-40 -16.5zM88 -132h-66l100 235h97z" />
    <glyph glyph-name="less" unicode="&#x3c;" horiz-adv-x="591" 
d="M516 550v-78l-368 -186l368 -186v-79l-441 223v85z" />
    <glyph glyph-name="equal" unicode="=" horiz-adv-x="581" 
d="M51 259v61h480v-61h-480zM51 104v61h480v-61h-480z" />
    <glyph glyph-name="greater" unicode="&#x3e;" horiz-adv-x="591" 
d="M75 550l441 -221v-85l-441 -223v79l368 186l-368 186v78z" />
    <glyph glyph-name="question" unicode="?" horiz-adv-x="500" 
d="M221 174v93q0 37 10.5 62t27 35.5t35 21t35 19t27 27.5t10.5 49q0 40 -29.5 66t-73.5 26q-46 0 -75 -30t-26 -75h-84q-4 80 49.5 134t135.5 54q79 0 132.5 -50.5t53.5 -124.5q0 -38 -10.5 -65.5t-26.5 -41t-34.5 -25.5t-34.5 -20t-26.5 -22t-10.5 -33v-100h-85zM266 -8
q-23 0 -40 16.5t-17 40.5q0 23 17 39.5t40 16.5q24 0 40.5 -16.5t16.5 -39.5q0 -24 -16.5 -40.5t-40.5 -16.5z" />
    <glyph glyph-name="at" unicode="@" horiz-adv-x="499" 
d="M424 119h-57v22q-31 -31 -74 -31q-41 0 -70.5 29t-29.5 72q0 42 29 71t70 29q45 0 75 -32v14q0 37 -30.5 63t-74.5 26q-64 0 -109.5 -47t-45.5 -114q0 -70 50 -117.5t122 -47.5h145v-56h-145q-96 0 -162 64t-66 157q0 91 61.5 154.5t149.5 63.5q68 0 115 -42t47 -104
v-174zM315 158q37 0 52 31v44q-15 30 -52 30q-24 0 -40.5 -15t-16.5 -37t16.5 -37.5t40.5 -15.5z" />
    <glyph glyph-name="A" unicode="A" horiz-adv-x="529" 
d="M430 0l-43 127h-245l-43 -127h-106l217 600h109l217 -600h-106zM171 213h188l-94 280z" />
    <glyph glyph-name="B" unicode="B" horiz-adv-x="533" 
d="M395 304q46 -17 73 -53.5t27 -89.5q0 -73 -49 -117t-122 -44h-258v600h236q74 0 123.5 -45t49.5 -118q0 -94 -80 -133zM377 427q0 35 -25 58.5t-61 23.5h-128v-166h128q35 0 60.5 24.5t25.5 59.5zM310 91q36 0 61.5 23.5t25.5 58.5t-25.5 59.5t-61.5 24.5h-147v-166h147z
" />
    <glyph glyph-name="C" unicode="C" horiz-adv-x="650" 
d="M351 -8q-127 0 -217.5 90t-90.5 218t90.5 218t217.5 90q86 0 158 -44t112 -117l-84 -45q-27 50 -76.5 79.5t-109.5 29.5q-89 0 -150 -61t-61 -150t61 -150t150 -61q60 0 109.5 29.5t76.5 79.5l84 -45q-40 -73 -112 -117t-158 -44z" />
    <glyph glyph-name="D" unicode="D" horiz-adv-x="589" 
d="M66 0v600h180q124 0 212 -88t88 -212t-88 -212t-212 -88h-180zM163 91h83q86 0 144.5 59.5t58.5 149.5t-58.5 149.5t-144.5 59.5h-83v-418z" />
    <glyph glyph-name="E" unicode="E" horiz-adv-x="466" 
d="M415 511h-246v-166h213v-90h-213v-166h246v-89h-344v600h344v-89z" />
    <glyph glyph-name="F" unicode="F" horiz-adv-x="428" 
d="M415 511h-246v-166h213v-90h-213v-255h-98v600h344v-89z" />
    <glyph glyph-name="G" unicode="G" horiz-adv-x="705" 
d="M352 324h309v-24q0 -128 -90.5 -218t-217.5 -90q-128 0 -218 90t-90 218t90 218t218 90q86 0 158 -44t112 -117l-84 -45q-27 50 -76.5 79.5t-109.5 29.5q-89 0 -150.5 -61t-61.5 -150t61.5 -150t150.5 -61q73 0 129 42.5t74 110.5h-204v82z" />
    <glyph glyph-name="H" unicode="H" horiz-adv-x="615" 
d="M451 600h98v-600h-98v255h-287v-255h-98v600h98v-254h287v254z" />
    <glyph glyph-name="I" unicode="I" horiz-adv-x="239" 
d="M71 0v600h98v-600h-98z" />
    <glyph glyph-name="J" unicode="J" horiz-adv-x="423" 
d="M369 600v-451q0 -73 -45.5 -115t-125.5 -42q-72 0 -116.5 35t-52.5 97l98 26q3 -31 22.5 -49.5t48.5 -18.5q32 0 52.5 22t20.5 57v348h-203v91h301z" />
    <glyph glyph-name="K" unicode="K" horiz-adv-x="551" 
d="M432 0l-236 283h-32v-283h-98v600h98v-229h34l218 229h129l-266 -272l286 -328h-133z" />
    <glyph glyph-name="L" unicode="L" horiz-adv-x="380" 
d="M164 91h211v-91h-309v600h98v-509z" />
    <glyph glyph-name="M" unicode="M" horiz-adv-x="762" 
d="M592 600h104v-600h-97v414l-186 -414h-65l-184 413v-413h-98v600h105l210 -470z" />
    <glyph glyph-name="N" unicode="N" horiz-adv-x="660" 
d="M497 600h97v-600h-98l-332 446v-446h-98v600h98l333 -445v445z" />
    <glyph glyph-name="O" unicode="O" horiz-adv-x="702" 
d="M351 -8q-127 0 -217.5 90t-90.5 218t90.5 218t217.5 90t217.5 -90t90.5 -218t-90.5 -218t-217.5 -90zM351 89q89 0 150 61t61 150t-61 150t-150 61t-150 -61t-61 -150t61 -150t150 -61z" />
    <glyph glyph-name="P" unicode="P" horiz-adv-x="484" 
d="M301 600q72 0 122.5 -51t50.5 -123q0 -73 -50 -122t-123 -49h-137v-255h-98v600h235zM287 340q40 0 65.5 23t25.5 62q0 38 -25.5 62t-65.5 24h-123v-171h123z" />
    <glyph glyph-name="Q" unicode="Q" horiz-adv-x="705" 
d="M683 78v-78h-262q-35 -8 -70 -8q-127 0 -217.5 90t-90.5 218t90.5 218t217.5 90t217.5 -90t90.5 -218q0 -77 -36 -144t-97 -109l83 31h74zM140 300q0 -89 61 -150t150 -61t150 61t61 150t-61 150t-150 61t-150 -61t-61 -150z" />
    <glyph glyph-name="R" unicode="R" horiz-adv-x="518" 
d="M344 261l172 -261h-110l-159 252h-83v-252h-98v600h235q73 0 123 -51t50 -125q0 -60 -36.5 -105.5t-93.5 -57.5zM164 337h125q39 0 64 24t25 62t-25 62t-64 24h-125v-172z" />
    <glyph glyph-name="S" unicode="S" horiz-adv-x="454" 
d="M233 -8q-71 0 -127.5 35.5t-83.5 92.5l84 51q16 -39 49.5 -62t78.5 -23q43 0 70 21t27 57q0 35 -29.5 58t-71 38t-83 33.5t-71 55.5t-29.5 92q0 78 52 122.5t127 44.5q107 0 172 -80l-69 -63q-41 52 -103 52q-35 0 -58 -17.5t-23 -51.5q0 -33 29.5 -55.5t71 -37.5t83 -34
t71 -58.5t29.5 -98.5q0 -79 -56 -125.5t-140 -46.5z" />
    <glyph glyph-name="T" unicode="T" horiz-adv-x="419" 
d="M417 600v-91h-159v-509h-97v509h-159v91h415z" />
    <glyph glyph-name="U" unicode="U" horiz-adv-x="601" 
d="M300 -8q-102 0 -169.5 58t-67.5 145v405h98v-388q0 -56 39.5 -92.5t99.5 -36.5t100 37t40 92v388h98v-405q0 -87 -68 -145t-170 -58z" />
    <glyph glyph-name="V" unicode="V" horiz-adv-x="529" 
d="M427 600h109l-217 -600h-109l-217 600h109l163 -476z" />
    <glyph glyph-name="W" unicode="W" horiz-adv-x="813" 
d="M722 600h102l-175 -600h-110l-133 480l-131 -480h-109l-177 600h104l130 -452l128 452h88h23l129 -454z" />
    <glyph glyph-name="X" unicode="X" horiz-adv-x="506" 
d="M512 0h-115l-144 226l-144 -226h-115l206 306l-197 294h114l136 -213l137 213h113l-197 -293z" />
    <glyph glyph-name="Y" unicode="Y" horiz-adv-x="505" 
d="M511 600l-209 -316v-284h-98v282l-210 318h115l144 -226l145 226h113z" />
    <glyph glyph-name="Z" unicode="Z" horiz-adv-x="520" 
d="M192 91h295v-91h-457l290 509h-265v91h426z" />
    <glyph glyph-name="bracketleft" unicode="[" horiz-adv-x="290" 
d="M66 -200v922h186v-59h-104v-803h104v-60h-186z" />
    <glyph glyph-name="backslash" unicode="\" horiz-adv-x="553" 
d="M480 -240l-496 952h90l495 -952h-89z" />
    <glyph glyph-name="bracketright" unicode="]" horiz-adv-x="290" 
d="M39 -200v60h103v803h-103v59h185v-922h-185z" />
    <glyph glyph-name="asciicircum" unicode="^" horiz-adv-x="584" 
d="M556 158h-79l-185 368l-186 -368h-79l222 442h85z" />
    <glyph glyph-name="underscore" unicode="_" horiz-adv-x="549" 
d="M35 -75v75h480v-75h-480z" />
    <glyph glyph-name="grave" unicode="`" horiz-adv-x="64" 
d="M203 451h-62l-123 149h97z" />
    <glyph glyph-name="a" unicode="a" horiz-adv-x="484" 
d="M453 78h24v-78q-18 -8 -35 -8q-71 0 -102 63q-48 -63 -149 -63q-65 0 -103.5 31t-38.5 83q0 53 35.5 84t96.5 31h145v29q0 36 -25.5 57t-65.5 21t-65.5 -20t-25.5 -55h-95q0 70 52.5 112.5t133.5 42.5t133.5 -45.5t52.5 -118.5v-115q0 -25 9 -38t23 -13zM215 63
q42 0 72 22.5t39 60.5v9h-117q-28 0 -44.5 -12.5t-16.5 -33.5t18 -33.5t49 -12.5z" />
    <glyph glyph-name="b" unicode="b" horiz-adv-x="531" 
d="M290 408q85 0 144 -60.5t59 -147.5t-59 -147.5t-144 -60.5q-74 0 -129 50v-42h-95v712h95v-354q55 50 129 50zM278 80q50 0 85 35t35 85t-35 85t-85 35t-85 -35t-35 -85t35 -85t85 -35z" />
    <glyph glyph-name="c" unicode="c" horiz-adv-x="484" 
d="M253 -8q-92 0 -153.5 60t-61.5 148t61.5 148t153.5 60q78 0 134.5 -43.5t73.5 -113.5h-99q-14 31 -43.5 50t-65.5 19q-50 0 -85 -34.5t-35 -85.5t35 -85.5t85 -34.5q36 0 65.5 19t43.5 50h99q-17 -70 -73.5 -113.5t-134.5 -43.5z" />
    <glyph glyph-name="d" unicode="d" horiz-adv-x="531" 
d="M370 712h95v-712h-95v42q-55 -50 -129 -50q-85 0 -144 60.5t-59 147.5t59 147.5t144 60.5q74 0 129 -50v354zM253 80q50 0 85 35t35 85t-35 85t-85 35t-85 -35t-35 -85t35 -85t85 -35z" />
    <glyph glyph-name="e" unicode="e" horiz-adv-x="504" 
d="M468 202l-1 -17h-331q4 -51 36.5 -82.5t82.5 -31.5q39 0 68.5 18.5t42.5 50.5h95q-18 -67 -73.5 -107.5t-132.5 -40.5q-93 0 -155 59t-62 149t61.5 149t154.5 59q92 0 152.5 -58t61.5 -148zM255 328q-40 0 -69 -20.5t-42 -54.5h220q-29 75 -109 75z" />
    <glyph glyph-name="f" unicode="f" horiz-adv-x="287" 
d="M283 400v-80h-101v-320h-95v320h-67v80h67v181q0 54 40 92.5t96 38.5q41 0 58 -12v-74h-47q-22 0 -37 -15.5t-15 -41.5v-169h101z" />
    <glyph glyph-name="g" unicode="g" horiz-adv-x="536" 
d="M373 400h96v-421q0 -98 -61.5 -159.5t-158.5 -61.5q-72 0 -126.5 36.5t-77.5 98.5l87 36q12 -38 43.5 -61t73.5 -23q54 0 89.5 37t35.5 94v65q-54 -49 -128 -49q-85 0 -144 60.5t-59 147.5t59 147.5t144 60.5q74 0 127 -48v40zM257 80q50 0 85.5 35t35.5 85t-35.5 85
t-85.5 35t-85 -35t-35 -85t35 -85t85 -35z" />
    <glyph glyph-name="h" unicode="h" horiz-adv-x="467" 
d="M259 408q62 0 105.5 -44.5t43.5 -109.5v-254h-95v245q0 31 -21.5 53t-53.5 22t-54.5 -23.5t-22.5 -55.5v-241h-95v712h95v-341q43 37 98 37z" />
    <glyph glyph-name="i" unicode="i" horiz-adv-x="236" 
d="M118 471q-23 0 -40 16.5t-17 39.5q0 24 17 40.5t40 16.5t40 -16.5t17 -40.5q0 -23 -17 -39.5t-40 -16.5zM71 0v400h94v-400h-94z" />
    <glyph glyph-name="j" unicode="j" horiz-adv-x="236" 
d="M118 471q-23 0 -40 16.5t-17 39.5q0 24 17 40.5t40 16.5t40 -16.5t17 -40.5q0 -23 -17 -39.5t-40 -16.5zM30 -240q-39 0 -59 13v73h47q22 0 37.5 15.5t15.5 41.5v497h94v-508q0 -55 -40 -93.5t-95 -38.5z" />
    <glyph glyph-name="k" unicode="k" horiz-adv-x="446" 
d="M461 0h-125l-170 205v-205h-94v712h94v-472l161 160h118l-180 -180z" />
    <glyph glyph-name="l" unicode="l" horiz-adv-x="227" 
d="M66 0v712h95v-712h-95z" />
    <glyph glyph-name="m" unicode="m" horiz-adv-x="696" 
d="M493 408q63 0 103.5 -43.5t40.5 -110.5v-254h-95v244q0 32 -20.5 54t-51.5 22t-51 -22.5t-20 -53.5v-244h-95v244q0 32 -20.5 54t-51.5 22t-51 -22.5t-20 -53.5v-244h-95v400h95v-41q41 49 99 49q69 0 112 -63q42 63 121 63z" />
    <glyph glyph-name="n" unicode="n" horiz-adv-x="469" 
d="M267 408q59 0 101 -43.5t42 -107.5v-257h-94v244q0 32 -22 54t-55 22t-55.5 -22t-22.5 -54v-244h-95v400h95v-39q44 47 106 47z" />
    <glyph glyph-name="o" unicode="o" horiz-adv-x="506" 
d="M253 -8q-92 0 -153.5 60t-61.5 148t61.5 148t153.5 60t153.5 -60t61.5 -148t-61.5 -148t-153.5 -60zM253 80q50 0 85 35t35 85t-35 85t-85 35q-51 0 -85.5 -35t-34.5 -85t34.5 -85t85.5 -35z" />
    <glyph glyph-name="p" unicode="p" horiz-adv-x="531" 
d="M290 408q85 0 144 -60.5t59 -147.5t-59 -147.5t-144 -60.5q-74 0 -129 50v-282h-95v640h95v-42q55 50 129 50zM278 80q50 0 85 35t35 85t-35 85t-85 35t-85 -35t-35 -85t35 -85t85 -35z" />
    <glyph glyph-name="q" unicode="q" horiz-adv-x="531" 
d="M518 -154h37v-78q-21 -8 -49 -8q-55 0 -95.5 38.5t-40.5 93.5v150q-55 -50 -129 -50q-85 0 -144 60.5t-59 147.5t59 147.5t144 60.5q74 0 129 -50v42h95v-497q0 -26 15 -41.5t38 -15.5zM253 80q50 0 85 35t35 85t-35 85t-85 35t-85 -35t-35 -85t35 -85t85 -35z" />
    <glyph glyph-name="r" unicode="r" horiz-adv-x="317" 
d="M284 408q17 0 32 -3v-87q-20 2 -34 2q-52 0 -86.5 -32.5t-34.5 -84.5v-203h-95v400h95v-55q45 63 123 63z" />
    <glyph glyph-name="s" unicode="s" horiz-adv-x="343" 
d="M179 -8q-51 0 -95 25.5t-58 66.5l77 35q9 -22 29 -33.5t44 -11.5q22 0 36 10.5t14 28.5q0 16 -13.5 26.5t-47.5 24.5q-56 20 -87.5 47.5t-31.5 75.5q0 52 37.5 86.5t93.5 34.5q40 0 75 -17.5t51 -43.5l-60 -49q-18 30 -60 30q-43 0 -43 -36q0 -17 12 -26t46 -23
q25 -10 42 -19t36.5 -24t29.5 -36.5t10 -48.5q0 -54 -38.5 -88.5t-98.5 -34.5z" />
    <glyph glyph-name="t" unicode="t" horiz-adv-x="304" 
d="M278 320h-101v-185q0 -26 15 -41.5t38 -15.5h46v-73q-19 -13 -58 -13q-55 0 -95.5 38.5t-40.5 93.5v196h-66v80h66v164h95v-164h101v-80z" />
    <glyph glyph-name="u" unicode="u" horiz-adv-x="446" 
d="M223 -8q-78 0 -123 42t-45 114v252h94v-240q0 -36 20.5 -58t53.5 -22t53.5 22t20.5 58v240h94v-252q0 -72 -45 -114t-123 -42z" />
    <glyph glyph-name="v" unicode="v" horiz-adv-x="415" 
d="M312 400h101l-161 -400h-90l-160 400h101l104 -297z" />
    <glyph glyph-name="w" unicode="w" horiz-adv-x="663" 
d="M555 400h105l-136 -400h-102l-90 271l-91 -271h-101l-138 400h107l86 -295l97 295h80l97 -297z" />
    <glyph glyph-name="x" unicode="x" horiz-adv-x="453" 
d="M451 400l-168 -200l168 -200h-114l-110 132l-111 -132h-114l168 200l-168 200h113l112 -133l111 133h113z" />
    <glyph glyph-name="y" unicode="y" horiz-adv-x="431" 
d="M327 400h102l-257 -640h-100l95 233l-165 407h101l114 -296z" />
    <glyph glyph-name="z" unicode="z" horiz-adv-x="401" 
d="M378 400l-199 -316h195v-84h-347l198 316h-180v84h333z" />
    <glyph glyph-name="braceleft" unicode="{" horiz-adv-x="271" 
d="M194 -229q-39 0 -65 33.5t-26 83.5v200q0 61 -11 84.5t-49 41.5v58q38 18 49 42.5t11 83.5v200q0 50 26 83.5t65 33.5h47v-61q-40 0 -53 -10t-13 -47v-211q0 -101 -49 -143q49 -42 49 -143v-215q0 -30 13 -41.5t53 -11.5v-61h-47z" />
    <glyph glyph-name="bar" unicode="|" horiz-adv-x="248" 
d="M94 -120v720h60v-720h-60z" />
    <glyph glyph-name="braceright" unicode="}" horiz-adv-x="271" 
d="M30 -229v61q39 0 52 11.5t13 41.5v215q0 100 50 143q-50 43 -50 143v211q0 37 -12.5 47t-52.5 10v61h47q39 0 65 -33.5t26 -83.5v-200q0 -59 11 -83.5t49 -42.5v-58q-38 -18 -49 -41.5t-11 -84.5v-200q0 -50 -26 -83.5t-65 -33.5h-47z" />
    <glyph glyph-name="asciitilde" unicode="~" horiz-adv-x="471" 
d="M319 130q-9 0 -17 1.5t-15 3t-14.5 5l-12.5 6t-11.5 7.5l-10 7.5t-9.5 8.5t-8 7.5t-7.5 7.5t-6.5 7q-25 28 -48 28q-27 0 -43 -23.5t-15 -57.5h-66q-4 65 30.5 106t94.5 41q57 0 102 -58q24 -32 51 -32q26 0 42.5 22t14.5 58h65q5 -61 -28.5 -103t-87.5 -42z" />
    <glyph glyph-name="exclamdown" unicode="&#xa1;" horiz-adv-x="263" 
d="M131 287q-23 0 -39.5 16.5t-16.5 39.5t16.5 40t39.5 17t40 -17t17 -40t-17 -39.5t-40 -16.5zM84 -240l11 451h72l11 -451h-94z" />
    <glyph glyph-name="cent" unicode="&#xa2;" horiz-adv-x="418" 
d="M262 405q-52 0 -88.5 -36.5t-36.5 -88.5t36.5 -88.5t88.5 -36.5q61 0 97 33v-93q-42 -22 -88 -23v-73h-56v78q-75 15 -123.5 71.5t-48.5 131.5t48.5 131.5t123.5 71.5v78h56v-73q46 -1 88 -23v-92q-36 32 -97 32z" />
    <glyph glyph-name="sterling" unicode="&#xa3;" horiz-adv-x="509" 
d="M167 67h304v-67h-376v261h-64v63h64v92q0 84 53 138t135 54q61 0 113 -39.5t66 -99.5l-69 -30q-4 41 -37 69t-73 28q-52 0 -84 -33t-32 -87v-92h149v-63h-149v-194z" />
    <glyph glyph-name="currency" unicode="&#xa4;" horiz-adv-x="513" 
d="M111 94l-50 53l42 41q-32 46 -32 102.5t32 101.5l-41 41l50 53l42 -43q46 32 102.5 32.5t102.5 -31.5l41 41l52 -51l-42 -41q32 -46 32 -102.5t-32 -102.5l41 -41l-50 -53l-42 43q-46 -32 -102.5 -32t-103.5 32zM175 210q34 -33 81 -33.5t81 33.5q33 33 33 80.5t-34 80.5
q-33 32 -80 32t-80 -33t-33.5 -80.5t32.5 -79.5z" />
    <glyph glyph-name="yen" unicode="&#xa5;" horiz-adv-x="562" 
d="M526 600l-202 -306h149v-59h-151v-70h151v-57h-151v-108h-83v108h-150v57h150v70h-150v59h148l-202 306h88l157 -245l158 245h88z" />
    <glyph glyph-name="brokenbar" unicode="&#xa6;" horiz-adv-x="248" 
d="M94 312v288h60v-288h-60zM94 -120v288h60v-288h-60z" />
    <glyph glyph-name="section" unicode="&#xa7;" horiz-adv-x="516" 
d="M432 204q31 -29 31 -72q0 -56 -59.5 -93t-141.5 -37q-69 0 -126 26.5t-81 67.5l60 36q16 -29 55.5 -47t94.5 -18q54 0 91 17.5t37 48.5q0 26 -32 42.5t-77.5 27.5t-91.5 24t-78 41.5t-32 71.5q0 42 32 73q-32 27 -32 70q0 58 52.5 91.5t124.5 33.5q50 0 95.5 -16.5
t72.5 -43.5l-48 -39q-43 38 -116 38q-45 0 -78 -16.5t-33 -44.5q0 -26 32 -42.5t78 -27t91.5 -24t77.5 -42.5t32 -73q0 -40 -31 -73zM152 343q0 -28 32 -44.5t96 -32t93 -27.5q20 17 20 39q0 27 -32 43t-96 31.5t-93 26.5q-20 -15 -20 -36z" />
    <glyph glyph-name="dieresis" unicode="&#xa8;" horiz-adv-x="75" 
d="M104 472q-21 0 -36.5 15.5t-15.5 36.5q0 22 15.5 37t36.5 15q22 0 37.5 -15t15.5 -37q0 -21 -15.5 -36.5t-37.5 -15.5zM261 472q-21 0 -36.5 15.5t-15.5 36.5q0 22 15.5 37t36.5 15q22 0 37 -15t15 -37q0 -21 -15 -36.5t-37 -15.5z" />
    <glyph glyph-name="copyright" unicode="&#xa9;" horiz-adv-x="702" 
d="M351 -8q-127 0 -217.5 90t-90.5 218t90.5 218t217.5 90t217.5 -90t90.5 -218t-90.5 -218t-217.5 -90zM351 44q107 0 181.5 74.5t74.5 181.5t-74.5 181.5t-181.5 74.5t-181.5 -74.5t-74.5 -181.5t74.5 -181.5t181.5 -74.5zM355 141q-69 0 -115.5 45.5t-46.5 112.5
t46.5 112.5t115.5 45.5q59 0 101 -33t54 -86h-74q-11 24 -32.5 38t-48.5 14q-38 0 -64 -26t-26 -65t26 -65t64 -26q27 0 48.5 14t32.5 38h74q-12 -53 -54 -86t-101 -33z" />
    <glyph glyph-name="ordfeminine" unicode="&#xaa;" horiz-adv-x="335" 
d="M241 600h48v-240h-48v44q-33 -49 -93 -49q-50 0 -85 36.5t-35 88.5t35 88.5t85 36.5q61 0 93 -50v45zM157 396q35 0 59.5 24.5t24.5 59.5q0 34 -24.5 58.5t-59.5 24.5q-34 0 -58 -24.5t-24 -58.5q0 -35 24 -59.5t58 -24.5z" />
    <glyph glyph-name="guillemotleft" unicode="&#xab;" horiz-adv-x="549" 
d="M213 76l-122 147l122 147h77l-122 -147l122 -147h-77zM381 76l-122 147l122 147h78l-122 -147l122 -147h-78z" />
    <glyph glyph-name="logicalnot" unicode="&#xac;" horiz-adv-x="647" 
d="M509 85v204h-434v65h498v-269h-64z" />
    <glyph glyph-name="uni00AD" unicode="&#xad;" horiz-adv-x="399" 
d="M48 170v76h280v-76h-280z" />
    <glyph glyph-name="registered" unicode="&#xae;" horiz-adv-x="702" 
d="M351 608q127 0 217.5 -90t90.5 -218t-90.5 -218t-217.5 -90t-217.5 90t-90.5 218t90.5 218t217.5 90zM351 44q107 0 181.5 74.5t74.5 181.5t-74.5 181.5t-181.5 74.5t-181.5 -74.5t-74.5 -181.5t74.5 -181.5t181.5 -74.5zM464 364q0 -29 -15.5 -51.5t-41.5 -32.5l73 -135
h-54l-71 128h-40v-128h-47v310h103q39 0 66 -26.5t27 -64.5zM315 407v-87h56q18 0 31 12.5t13 31.5q0 18 -12.5 30.5t-31.5 12.5h-56z" />
    <glyph glyph-name="macron" unicode="&#xaf;" horiz-adv-x="53" 
d="M37 473v62h228v-62h-228z" />
    <glyph glyph-name="degree" unicode="&#xb0;" horiz-adv-x="396" 
d="M198 394q-45 0 -76 31t-31 76q0 44 31 75.5t76 31.5q44 0 75.5 -31.5t31.5 -75.5q0 -45 -31.5 -76t-75.5 -31zM198 441q26 0 43 17.5t17 42.5t-17 42.5t-43 17.5t-43 -17.5t-17 -42.5t17 -42.5t43 -17.5z" />
    <glyph glyph-name="plusminus" unicode="&#xb1;" horiz-adv-x="643" 
d="M356 360h244v-69h-244v-144h-69v144h-244v69h244v144h69v-144zM43 0v62h557v-62h-557z" />
    <glyph glyph-name="uni00B2" unicode="&#xb2;" horiz-adv-x="301" 
d="M130 358h118v-43h-210l117 139q25 29 32 42t7 26q0 22 -12.5 32.5t-30.5 10.5q-19 1 -31 -12t-11 -33h-47q-2 39 25 64t67 25q37 -1 61.5 -23.5t25.5 -57.5q0 -25 -10.5 -44.5t-42.5 -57.5z" />
    <glyph glyph-name="uni00B3" unicode="&#xb3;" horiz-adv-x="294" 
d="M145 482q41 1 67.5 -22.5t26.5 -62.5q0 -38 -27 -64.5t-67 -26.5q-38 0 -65 24.5t-27 59.5h47q0 -16 13.5 -28t32.5 -12q20 0 33.5 14.5t13.5 34.5t-13.5 32.5t-33.5 12.5h-76h-2l86 112h-101v43h184z" />
    <glyph glyph-name="acute" unicode="&#xb4;" horiz-adv-x="64" 
d="M19 451l88 149h97l-123 -149h-62z" />
    <glyph glyph-name="uni00B5" unicode="&#xb5;" horiz-adv-x="488" 
d="M346 400h86v-400h-86v53q-49 -61 -123 -61q-51 0 -92 30v-222h-64v600h86v-238q0 -39 27.5 -66.5t66.5 -27.5q41 0 70 27.5t29 66.5v238z" />
    <glyph glyph-name="paragraph" unicode="&#xb6;" horiz-adv-x="517" 
d="M244 -120v452h-19q-67 0 -104.5 34.5t-37.5 99.5t37.5 99.5t104.5 34.5h69v-720h-50zM369 -120v720h49v-720h-49z" />
    <glyph glyph-name="periodcentered" unicode="&#xb7;" horiz-adv-x="236" 
d="M118 245q-18 0 -30.5 12.5t-12.5 30.5q0 17 13 30t30 13t30 -13t13 -30q0 -18 -13 -30.5t-30 -12.5z" />
    <glyph glyph-name="cedilla" unicode="&#xb8;" horiz-adv-x="50" 
d="M120 -208q-29 0 -56 16.5t-37 40.5l45 16q7 -10 21 -17.5t27 -7.5q16 0 26.5 11t10.5 27q0 24 -20.5 32t-49.5 -5l-38 23l39 72h48l-26 -50q40 7 67.5 -13.5t27.5 -58.5q0 -36 -24.5 -61t-60.5 -25z" />
    <glyph glyph-name="uni00B9" unicode="&#xb9;" horiz-adv-x="219" 
d="M76 300v259h-44v41h91v-300h-47z" />
    <glyph glyph-name="ordmasculine" unicode="&#xba;" horiz-adv-x="316" 
d="M157 355q-53 0 -91 36.5t-38 88.5t38 88.5t91 36.5q55 0 93.5 -36.5t38.5 -88.5t-38.5 -88.5t-93.5 -36.5zM157 396q35 0 59.5 24.5t24.5 59.5q0 34 -24.5 58.5t-59.5 24.5q-34 0 -58 -24.5t-24 -58.5q0 -35 24 -59.5t58 -24.5z" />
    <glyph glyph-name="guillemotright" unicode="&#xbb;" horiz-adv-x="549" 
d="M91 76l121 147l-121 147h76l122 -147l-122 -147h-76zM258 76l122 147l-122 147h78l122 -147l-122 -147h-78z" />
    <glyph glyph-name="onequarter" unicode="&#xbc;" horiz-adv-x="838" 
d="M159 200h-64v341h-64v59h128v-400zM552 598h74l-418 -600h-74zM790 144v-60h-38v-84h-64v84h-191l175 316h80v-256h38zM584 144h104v194z" />
    <glyph glyph-name="onehalf" unicode="&#xbd;" horiz-adv-x="835" 
d="M159 200h-64v341h-64v59h128v-400zM541 599h74l-418 -600h-74zM633 58h164v-59h-292l162 192q35 40 45 58t10 37q0 29 -17 44t-42 15q-26 1 -43.5 -16.5t-15.5 -46.5h-65q-3 54 34.5 88.5t92.5 34.5q51 0 85.5 -31t35.5 -81q0 -34 -14.5 -60.5t-59.5 -79.5z" />
    <glyph glyph-name="threequarters" unicode="&#xbe;" horiz-adv-x="856" 
d="M305 323q0 -53 -37.5 -89.5t-92.5 -36.5q-53 0 -90 33.5t-37 82.5h65q0 -23 18.5 -39t44.5 -16q28 0 47 19t19 48q0 28 -18.5 45t-46.5 17h-106h-2l119 156h-140v59h255l-129 -163q56 3 93.5 -29t37.5 -87zM599 598h74l-418 -600h-74zM809 144v-60h-38v-84h-64v84h-191
l175 316h80v-256h38zM603 144h104v194z" />
    <glyph glyph-name="questiondown" unicode="&#xbf;" horiz-adv-x="505" 
d="M233 301q-23 0 -39.5 16.5t-16.5 39.5q0 24 16.5 40t39.5 16q24 0 40.5 -16t16.5 -40q0 -23 -17 -39.5t-40 -16.5zM237 -225q-80 0 -133 50t-53 125q0 38 10.5 65.5t26.5 41t34.5 25.5t34.5 20t26.5 22t10.5 33v74h85v-67q0 -44 -15 -70.5t-36.5 -37.5l-42.5 -21
t-36 -30.5t-15 -54.5q0 -40 29.5 -66.5t73.5 -26.5q46 0 74.5 30.5t26.5 75.5h84q4 -80 -49 -134t-136 -54z" />
    <glyph glyph-name="Agrave" unicode="&#xc0;" horiz-adv-x="529" 
d="M302 651h-62l-123 149h97zM430 0l-43 127h-245l-43 -127h-106l217 600h109l217 -600h-106zM171 213h188l-94 280z" />
    <glyph glyph-name="Aacute" unicode="&#xc1;" horiz-adv-x="529" 
d="M413 800l-123 -149h-62l88 149h97zM430 0l-43 127h-245l-43 -127h-106l217 600h109l217 -600h-106zM171 213h188l-94 280z" />
    <glyph glyph-name="Acircumflex" unicode="&#xc2;" horiz-adv-x="529" 
d="M265 744l-59 -93h-65l88 149h72l88 -149h-64zM430 0l-43 127h-245l-43 -127h-106l217 600h109l217 -600h-106zM171 213h188l-94 280z" />
    <glyph glyph-name="Atilde" unicode="&#xc3;" horiz-adv-x="529" 
d="M214 721q-32 0 -32 -59h-61q0 52 24.5 85t66.5 33q45 0 77 -45q12 -18 26 -18q31 0 31 59h61q0 -52 -24 -85t-67 -33q-46 0 -77 45q-11 18 -25 18zM430 0l-43 127h-245l-43 -127h-106l217 600h109l217 -600h-106zM171 213h188l-94 280z" />
    <glyph glyph-name="Adieresis" unicode="&#xc4;" horiz-adv-x="529" 
d="M186 672q-21 0 -36.5 15.5t-15.5 36.5q0 22 15.5 37t36.5 15q22 0 37.5 -15t15.5 -37q0 -21 -15.5 -36.5t-37.5 -15.5zM343 672q-21 0 -36.5 15.5t-15.5 36.5q0 22 15.5 37t36.5 15q22 0 37 -15t15 -37q0 -21 -15 -36.5t-37 -15.5zM430 0l-43 127h-245l-43 -127h-106
l217 600h109l217 -600h-106zM171 213h188l-94 280z" />
    <glyph glyph-name="Aring" unicode="&#xc5;" horiz-adv-x="529" 
d="M430 0l-43 127h-245l-43 -127h-106l211 584q-27 27 -27 64t26.5 63.5t64.5 26.5q37 0 63 -26.5t26 -63.5q0 -40 -31 -68l210 -580h-106zM268 696q-19 0 -32.5 -14t-13.5 -34t13 -33.5t33 -13.5t33.5 13.5t13.5 33.5t-14 34t-33 14zM171 213h188l-94 280z" />
    <glyph glyph-name="AE" unicode="&#xc6;" horiz-adv-x="736" 
d="M685 511h-249v-169h215v-84h-215v-169h249v-89h-344v134h-186l-52 -134h-110l241 600h451v-89zM187 217h154v300h-39z" />
    <glyph glyph-name="Ccedilla" unicode="&#xc7;" horiz-adv-x="650" 
d="M351 89q60 0 109.5 29.5t76.5 79.5l84 -45q-37 -69 -103.5 -112t-146.5 -48l-22 -43q40 7 67.5 -13.5t27.5 -58.5q0 -36 -24.5 -61t-60.5 -25q-29 0 -56 16.5t-37 40.5l45 16q7 -10 21 -17.5t27 -7.5q16 0 26.5 11t10.5 27q0 24 -20.5 32t-49.5 -5l-38 23l35 65
q-118 11 -199 99t-81 208q0 128 90.5 218t217.5 90q86 0 158 -44t112 -117l-84 -45q-27 50 -76.5 79.5t-109.5 29.5q-89 0 -150 -61t-61 -150t61 -150t150 -61z" />
    <glyph glyph-name="Egrave" unicode="&#xc8;" horiz-adv-x="466" 
d="M280 651h-62l-123 149h97zM415 511h-246v-166h213v-90h-213v-166h246v-89h-344v600h344v-89z" />
    <glyph glyph-name="Eacute" unicode="&#xc9;" horiz-adv-x="466" 
d="M391 800l-123 -149h-62l88 149h97zM415 511h-246v-166h213v-90h-213v-166h246v-89h-344v600h344v-89z" />
    <glyph glyph-name="Ecircumflex" unicode="&#xca;" horiz-adv-x="466" 
d="M243 744l-59 -93h-65l88 149h72l88 -149h-64zM415 511h-246v-166h213v-90h-213v-166h246v-89h-344v600h344v-89z" />
    <glyph glyph-name="Edieresis" unicode="&#xcb;" horiz-adv-x="466" 
d="M164 672q-21 0 -36.5 15.5t-15.5 36.5q0 22 15.5 37t36.5 15q22 0 37.5 -15t15.5 -37q0 -21 -15.5 -36.5t-37.5 -15.5zM321 672q-21 0 -36.5 15.5t-15.5 36.5q0 22 15.5 37t36.5 15q22 0 37 -15t15 -37q0 -21 -15 -36.5t-37 -15.5zM415 511h-246v-166h213v-90h-213v-166
h246v-89h-344v600h344v-89z" />
    <glyph glyph-name="Igrave" unicode="&#xcc;" horiz-adv-x="239" 
d="M156 651h-62l-123 149h97zM71 0v600h98v-600h-98z" />
    <glyph glyph-name="Iacute" unicode="&#xcd;" horiz-adv-x="239" 
d="M82 651l88 149h97l-123 -149h-62zM71 0v600h98v-600h-98z" />
    <glyph glyph-name="Icircumflex" unicode="&#xce;" horiz-adv-x="239" 
d="M60 651h-65l88 149h72l88 -149h-64l-60 93zM71 0v600h98v-600h-98z" />
    <glyph glyph-name="Idieresis" unicode="&#xcf;" horiz-adv-x="239" 
d="M40 672q-21 0 -36.5 15.5t-15.5 36.5q0 22 15.5 37t36.5 15q22 0 37.5 -15t15.5 -37q0 -21 -15.5 -36.5t-37.5 -15.5zM197 672q-21 0 -36.5 15.5t-15.5 36.5q0 22 15.5 37t36.5 15q22 0 37 -15t15 -37q0 -21 -15 -36.5t-37 -15.5zM71 0v600h98v-600h-98z" />
    <glyph glyph-name="Eth" unicode="&#xd0;" horiz-adv-x="589" 
d="M246 600q124 0 212 -88t88 -212t-88 -212t-212 -88h-180v267h-59v66h59v267h180zM246 91q86 0 144.5 59.5t58.5 149.5t-58.5 149.5t-144.5 59.5h-83v-176h99v-66h-99v-176h83z" />
    <glyph glyph-name="Ntilde" unicode="&#xd1;" horiz-adv-x="660" 
d="M279 721q-32 0 -32 -59h-61q0 52 24.5 85t66.5 33q45 0 77 -45q12 -18 26 -18q31 0 31 59h61q0 -52 -24 -85t-67 -33q-46 0 -77 45q-11 18 -25 18zM497 600h97v-600h-98l-332 446v-446h-98v600h98l333 -445v445z" />
    <glyph glyph-name="Ograve" unicode="&#xd2;" horiz-adv-x="702" 
d="M388 651h-62l-123 149h97zM351 -8q-127 0 -217.5 90t-90.5 218t90.5 218t217.5 90t217.5 -90t90.5 -218t-90.5 -218t-217.5 -90zM351 89q89 0 150 61t61 150t-61 150t-150 61t-150 -61t-61 -150t61 -150t150 -61z" />
    <glyph glyph-name="Oacute" unicode="&#xd3;" horiz-adv-x="702" 
d="M314 651l88 149h97l-123 -149h-62zM351 -8q-127 0 -217.5 90t-90.5 218t90.5 218t217.5 90t217.5 -90t90.5 -218t-90.5 -218t-217.5 -90zM351 89q89 0 150 61t61 150t-61 150t-150 61t-150 -61t-61 -150t61 -150t150 -61z" />
    <glyph glyph-name="Ocircumflex" unicode="&#xd4;" horiz-adv-x="702" 
d="M292 651h-65l88 149h72l88 -149h-64l-60 93zM351 -8q-127 0 -217.5 90t-90.5 218t90.5 218t217.5 90t217.5 -90t90.5 -218t-90.5 -218t-217.5 -90zM351 89q89 0 150 61t61 150t-61 150t-150 61t-150 -61t-61 -150t61 -150t150 -61z" />
    <glyph glyph-name="Otilde" unicode="&#xd5;" horiz-adv-x="702" 
d="M402 658q-46 0 -77 45q-11 18 -25 18q-32 0 -32 -59h-61q0 52 24.5 85t66.5 33q45 0 77 -45q12 -18 26 -18q31 0 31 59h61q0 -52 -24 -85t-67 -33zM351 -8q-127 0 -217.5 90t-90.5 218t90.5 218t217.5 90t217.5 -90t90.5 -218t-90.5 -218t-217.5 -90zM351 89q89 0 150 61
t61 150t-61 150t-150 61t-150 -61t-61 -150t61 -150t150 -61z" />
    <glyph glyph-name="Odieresis" unicode="&#xd6;" horiz-adv-x="702" 
d="M272 672q-21 0 -36.5 15.5t-15.5 36.5q0 22 15.5 37t36.5 15q22 0 37.5 -15t15.5 -37q0 -21 -15.5 -36.5t-37.5 -15.5zM429 672q-21 0 -36.5 15.5t-15.5 36.5q0 22 15.5 37t36.5 15q22 0 37 -15t15 -37q0 -21 -15 -36.5t-37 -15.5zM351 -8q-127 0 -217.5 90t-90.5 218
t90.5 218t217.5 90t217.5 -90t90.5 -218t-90.5 -218t-217.5 -90zM351 89q89 0 150 61t61 150t-61 150t-150 61t-150 -61t-61 -150t61 -150t150 -61z" />
    <glyph glyph-name="multiply" unicode="&#xd7;" horiz-adv-x="598" 
d="M506 396l-148 -148l148 -148l-54 -55l-149 148l-148 -148l-55 55l148 148l-148 148l55 55l148 -148l149 148z" />
    <glyph glyph-name="Oslash" unicode="&#xd8;" horiz-adv-x="702" 
d="M556 530q103 -93 103 -230q0 -128 -90.5 -218t-217.5 -90q-77 0 -144 36l-50 -72l-64 38l53 76q-103 93 -103 230q0 128 90.5 218t217.5 90q78 0 145 -36l49 70l63 -38zM140 300q0 -91 62 -150l238 342q-43 19 -89 19q-89 0 -150 -61t-61 -150zM351 89q89 0 150 61
t61 150t-61 150l-238 -342q41 -19 88 -19z" />
    <glyph glyph-name="Ugrave" unicode="&#xd9;" horiz-adv-x="601" 
d="M337 651h-62l-123 149h97zM300 -8q-102 0 -169.5 58t-67.5 145v405h98v-388q0 -56 39.5 -92.5t99.5 -36.5t100 37t40 92v388h98v-405q0 -87 -68 -145t-170 -58z" />
    <glyph glyph-name="Uacute" unicode="&#xda;" horiz-adv-x="601" 
d="M263 651l88 149h97l-123 -149h-62zM300 -8q-102 0 -169.5 58t-67.5 145v405h98v-388q0 -56 39.5 -92.5t99.5 -36.5t100 37t40 92v388h98v-405q0 -87 -68 -145t-170 -58z" />
    <glyph glyph-name="Ucircumflex" unicode="&#xdb;" horiz-adv-x="601" 
d="M241 651h-65l88 149h72l88 -149h-64l-60 93zM300 -8q-102 0 -169.5 58t-67.5 145v405h98v-388q0 -56 39.5 -92.5t99.5 -36.5t100 37t40 92v388h98v-405q0 -87 -68 -145t-170 -58z" />
    <glyph glyph-name="Udieresis" unicode="&#xdc;" horiz-adv-x="601" 
d="M221 672q-21 0 -36.5 15.5t-15.5 36.5q0 22 15.5 37t36.5 15q22 0 37.5 -15t15.5 -37q0 -21 -15.5 -36.5t-37.5 -15.5zM378 672q-21 0 -36.5 15.5t-15.5 36.5q0 22 15.5 37t36.5 15q22 0 37 -15t15 -37q0 -21 -15 -36.5t-37 -15.5zM300 -8q-102 0 -169.5 58t-67.5 145
v405h98v-388q0 -56 39.5 -92.5t99.5 -36.5t100 37t40 92v388h98v-405q0 -87 -68 -145t-170 -58z" />
    <glyph glyph-name="Yacute" unicode="&#xdd;" horiz-adv-x="505" 
d="M401 800l-123 -149h-62l88 149h97zM511 600l-209 -316v-284h-98v282l-210 318h115l144 -226l145 226h113z" />
    <glyph glyph-name="Thorn" unicode="&#xde;" horiz-adv-x="503" 
d="M305 515q71 0 121.5 -51t50.5 -124q0 -71 -50.5 -120.5t-121.5 -49.5h-139v-170h-94v515v85h94v-85h139zM299 258q38 0 62.5 24t24.5 61t-24.5 60.5t-62.5 23.5h-133v-169h133z" />
    <glyph glyph-name="germandbls" unicode="&#xdf;" horiz-adv-x="555" 
d="M412 311q40 -24 63.5 -63.5t23.5 -86.5q0 -71 -46.5 -117t-114.5 -44h-106v89h89q34 1 58.5 21.5t24.5 56.5q0 39 -29 66.5t-70 27.5h-38v78h15q39 0 66.5 27t27.5 65t-28.5 62t-72.5 24q-47 0 -78 -27.5t-31 -69.5v-420h-94v420q0 78 57.5 129t144.5 51q83 0 137 -47.5
t54 -119.5t-53 -122z" />
    <glyph glyph-name="agrave" unicode="&#xe0;" horiz-adv-x="484" 
d="M272 451h-62l-123 149h97zM453 78h24v-78q-18 -8 -35 -8q-71 0 -102 63q-48 -63 -149 -63q-65 0 -103.5 31t-38.5 83q0 53 35.5 84t96.5 31h145v29q0 36 -25.5 57t-65.5 21t-65.5 -20t-25.5 -55h-95q0 70 52.5 112.5t133.5 42.5t133.5 -45.5t52.5 -118.5v-115
q0 -25 9 -38t23 -13zM215 63q42 0 72 22.5t39 60.5v9h-117q-28 0 -44.5 -12.5t-16.5 -33.5t18 -33.5t49 -12.5z" />
    <glyph glyph-name="aacute" unicode="&#xe1;" horiz-adv-x="484" 
d="M383 600l-123 -149h-62l88 149h97zM453 78h24v-78q-18 -8 -35 -8q-71 0 -102 63q-48 -63 -149 -63q-65 0 -103.5 31t-38.5 83q0 53 35.5 84t96.5 31h145v29q0 36 -25.5 57t-65.5 21t-65.5 -20t-25.5 -55h-95q0 70 52.5 112.5t133.5 42.5t133.5 -45.5t52.5 -118.5v-115
q0 -25 9 -38t23 -13zM215 63q42 0 72 22.5t39 60.5v9h-117q-28 0 -44.5 -12.5t-16.5 -33.5t18 -33.5t49 -12.5z" />
    <glyph glyph-name="acircumflex" unicode="&#xe2;" horiz-adv-x="484" 
d="M235 544l-59 -93h-65l88 149h72l88 -149h-64zM453 78h24v-78q-18 -8 -35 -8q-71 0 -102 63q-48 -63 -149 -63q-65 0 -103.5 31t-38.5 83q0 53 35.5 84t96.5 31h145v29q0 36 -25.5 57t-65.5 21t-65.5 -20t-25.5 -55h-95q0 70 52.5 112.5t133.5 42.5t133.5 -45.5
t52.5 -118.5v-115q0 -25 9 -38t23 -13zM215 63q42 0 72 22.5t39 60.5v9h-117q-28 0 -44.5 -12.5t-16.5 -33.5t18 -33.5t49 -12.5z" />
    <glyph glyph-name="atilde" unicode="&#xe3;" horiz-adv-x="484" 
d="M184 521q-32 0 -32 -59h-61q0 52 24.5 85t66.5 33q45 0 77 -45q12 -18 26 -18q31 0 31 59h61q0 -52 -24 -85t-67 -33q-46 0 -77 45q-11 18 -25 18zM453 78h24v-78q-18 -8 -35 -8q-71 0 -102 63q-48 -63 -149 -63q-65 0 -103.5 31t-38.5 83q0 53 35.5 84t96.5 31h145v29
q0 36 -25.5 57t-65.5 21t-65.5 -20t-25.5 -55h-95q0 70 52.5 112.5t133.5 42.5t133.5 -45.5t52.5 -118.5v-115q0 -25 9 -38t23 -13zM215 63q42 0 72 22.5t39 60.5v9h-117q-28 0 -44.5 -12.5t-16.5 -33.5t18 -33.5t49 -12.5z" />
    <glyph glyph-name="adieresis" unicode="&#xe4;" horiz-adv-x="484" 
d="M156 472q-21 0 -36.5 15.5t-15.5 36.5q0 22 15.5 37t36.5 15q22 0 37.5 -15t15.5 -37q0 -21 -15.5 -36.5t-37.5 -15.5zM313 472q-21 0 -36.5 15.5t-15.5 36.5q0 22 15.5 37t36.5 15q22 0 37 -15t15 -37q0 -21 -15 -36.5t-37 -15.5zM453 78h24v-78q-18 -8 -35 -8
q-71 0 -102 63q-48 -63 -149 -63q-65 0 -103.5 31t-38.5 83q0 53 35.5 84t96.5 31h145v29q0 36 -25.5 57t-65.5 21t-65.5 -20t-25.5 -55h-95q0 70 52.5 112.5t133.5 42.5t133.5 -45.5t52.5 -118.5v-115q0 -25 9 -38t23 -13zM215 63q42 0 72 22.5t39 60.5v9h-117
q-28 0 -44.5 -12.5t-16.5 -33.5t18 -33.5t49 -12.5z" />
    <glyph glyph-name="aring" unicode="&#xe5;" horiz-adv-x="484" 
d="M235 435q-37 0 -64 26.5t-27 63.5t26.5 63.5t64.5 26.5q37 0 63 -26.5t26 -63.5t-26 -63.5t-63 -26.5zM235 573q-19 0 -32.5 -14t-13.5 -34t13 -33.5t33 -13.5t33.5 13.5t13.5 33.5t-14 34t-33 14zM453 78h24v-78q-18 -8 -35 -8q-71 0 -102 63q-48 -63 -149 -63
q-65 0 -103.5 31t-38.5 83q0 53 35.5 84t96.5 31h145v29q0 36 -25.5 57t-65.5 21t-65.5 -20t-25.5 -55h-95q0 70 52.5 112.5t133.5 42.5t133.5 -45.5t52.5 -118.5v-115q0 -25 9 -38t23 -13zM215 63q42 0 72 22.5t39 60.5v9h-117q-28 0 -44.5 -12.5t-16.5 -33.5t18 -33.5
t49 -12.5z" />
    <glyph glyph-name="ae" unicode="&#xe6;" horiz-adv-x="783" 
d="M747 202l-1 -17h-331q4 -51 36.5 -82.5t82.5 -31.5q39 0 68.5 18.5t42.5 50.5h95q-18 -67 -73.5 -107.5t-132.5 -40.5q-106 0 -169 74q-77 -74 -169 -74q-67 0 -107 34t-40 91q0 59 42 92.5t114 33.5h110v17q0 33 -22.5 54t-58.5 22q-30 1 -52.5 -13t-27.5 -37l-87 26
q15 44 60.5 70t107.5 26q96 0 144 -59q62 59 154 59t152.5 -58t61.5 -148zM534 328q-40 0 -69 -20.5t-42 -54.5h220q-29 75 -109 75zM210 66q66 0 118 67q-7 18 -10 42h-98q-35 0 -54.5 -14.5t-19.5 -41.5q0 -25 17.5 -39t46.5 -14z" />
    <glyph glyph-name="ccedilla" unicode="&#xe7;" horiz-adv-x="484" 
d="M253 80q36 0 65.5 19t43.5 50h99q-16 -66 -67 -109t-124 -47l-22 -43q40 7 67.5 -13.5t27.5 -58.5q0 -36 -24.5 -61t-60.5 -25q-29 0 -56 16.5t-37 40.5l45 16q7 -10 21 -17.5t27 -7.5q16 0 26.5 11t10.5 27q0 24 -20.5 32t-49.5 -5l-38 23l36 66q-82 10 -133.5 68
t-51.5 138q0 88 61.5 148t153.5 60q78 0 134.5 -43.5t73.5 -113.5h-99q-14 31 -43.5 50t-65.5 19q-50 0 -85 -34.5t-35 -85.5t35 -85.5t85 -34.5z" />
    <glyph glyph-name="egrave" unicode="&#xe8;" horiz-adv-x="504" 
d="M295 453h-62l-123 149h97zM468 202l-1 -17h-331q4 -51 36.5 -82.5t82.5 -31.5q39 0 68.5 18.5t42.5 50.5h95q-18 -67 -73.5 -107.5t-132.5 -40.5q-93 0 -155 59t-62 149t61.5 149t154.5 59q92 0 152.5 -58t61.5 -148zM255 328q-40 0 -69 -20.5t-42 -54.5h220
q-29 75 -109 75z" />
    <glyph glyph-name="eacute" unicode="&#xe9;" horiz-adv-x="504" 
d="M406 602l-123 -149h-62l88 149h97zM468 202l-1 -17h-331q4 -51 36.5 -82.5t82.5 -31.5q39 0 68.5 18.5t42.5 50.5h95q-18 -67 -73.5 -107.5t-132.5 -40.5q-93 0 -155 59t-62 149t61.5 149t154.5 59q92 0 152.5 -58t61.5 -148zM255 328q-40 0 -69 -20.5t-42 -54.5h220
q-29 75 -109 75z" />
    <glyph glyph-name="ecircumflex" unicode="&#xea;" horiz-adv-x="504" 
d="M258 546l-59 -93h-65l88 149h72l88 -149h-64zM468 202l-1 -17h-331q4 -51 36.5 -82.5t82.5 -31.5q39 0 68.5 18.5t42.5 50.5h95q-18 -67 -73.5 -107.5t-132.5 -40.5q-93 0 -155 59t-62 149t61.5 149t154.5 59q92 0 152.5 -58t61.5 -148zM255 328q-40 0 -69 -20.5
t-42 -54.5h220q-29 75 -109 75z" />
    <glyph glyph-name="edieresis" unicode="&#xeb;" horiz-adv-x="504" 
d="M179 474q-21 0 -36.5 15.5t-15.5 36.5q0 22 15.5 37t36.5 15q22 0 37.5 -15t15.5 -37q0 -21 -15.5 -36.5t-37.5 -15.5zM336 474q-21 0 -36.5 15.5t-15.5 36.5q0 22 15.5 37t36.5 15q22 0 37 -15t15 -37q0 -21 -15 -36.5t-37 -15.5zM468 202l-1 -17h-331q4 -51 36.5 -82.5
t82.5 -31.5q39 0 68.5 18.5t42.5 50.5h95q-18 -67 -73.5 -107.5t-132.5 -40.5q-93 0 -155 59t-62 149t61.5 149t154.5 59q92 0 152.5 -58t61.5 -148zM255 328q-40 0 -69 -20.5t-42 -54.5h220q-29 75 -109 75z" />
    <glyph glyph-name="igrave" unicode="&#xec;" horiz-adv-x="237" 
d="M156 451h-62l-123 149h97zM71 0v400h95v-400h-95z" />
    <glyph glyph-name="iacute" unicode="&#xed;" horiz-adv-x="237" 
d="M82 451l88 149h97l-123 -149h-62zM71 0v400h95v-400h-95z" />
    <glyph glyph-name="icircumflex" unicode="&#xee;" horiz-adv-x="237" 
d="M60 451h-65l88 149h72l88 -149h-64l-60 93zM71 0v400h95v-400h-95z" />
    <glyph glyph-name="idieresis" unicode="&#xef;" horiz-adv-x="237" 
d="M40 472q-21 0 -36.5 15.5t-15.5 36.5q0 22 15.5 37t36.5 15q22 0 37.5 -15t15.5 -37q0 -21 -15.5 -36.5t-37.5 -15.5zM197 472q-21 0 -36.5 15.5t-15.5 36.5q0 22 15.5 37t36.5 15q22 0 37 -15t15 -37q0 -21 -15 -36.5t-37 -15.5zM71 0v400h95v-400h-95z" />
    <glyph glyph-name="eth" unicode="&#xf0;" horiz-adv-x="508" 
d="M323 557q71 -55 112.5 -148.5t41.5 -208.5q0 -87 -64 -147.5t-156 -60.5t-155.5 60.5t-63.5 147.5t63.5 147.5t155.5 60.5q47 0 91 -18q-26 62 -75 103l-40 -51l-44 35l36 46q-50 22 -105 22l19 76q74 0 137 -34l38 48l44 -33zM257 79q50 0 85.5 35.5t35.5 85.5
t-35.5 85.5t-85.5 35.5t-85 -35.5t-35 -85.5t35 -85.5t85 -35.5z" />
    <glyph glyph-name="ntilde" unicode="&#xf1;" horiz-adv-x="469" 
d="M188 521q-32 0 -32 -59h-61q0 52 24.5 85t66.5 33q45 0 77 -45q12 -18 26 -18q31 0 31 59h61q0 -52 -24 -85t-67 -33q-46 0 -77 45q-11 18 -25 18zM267 408q59 0 101 -43.5t42 -107.5v-257h-94v244q0 32 -22 54t-55 22t-55.5 -22t-22.5 -54v-244h-95v400h95v-39
q44 47 106 47z" />
    <glyph glyph-name="ograve" unicode="&#xf2;" horiz-adv-x="506" 
d="M290 451h-62l-123 149h97zM253 -8q-92 0 -153.5 60t-61.5 148t61.5 148t153.5 60t153.5 -60t61.5 -148t-61.5 -148t-153.5 -60zM253 80q50 0 85 35t35 85t-35 85t-85 35q-51 0 -85.5 -35t-34.5 -85t34.5 -85t85.5 -35z" />
    <glyph glyph-name="oacute" unicode="&#xf3;" horiz-adv-x="506" 
d="M216 451l88 149h97l-123 -149h-62zM253 -8q-92 0 -153.5 60t-61.5 148t61.5 148t153.5 60t153.5 -60t61.5 -148t-61.5 -148t-153.5 -60zM253 80q50 0 85 35t35 85t-35 85t-85 35q-51 0 -85.5 -35t-34.5 -85t34.5 -85t85.5 -35z" />
    <glyph glyph-name="ocircumflex" unicode="&#xf4;" horiz-adv-x="506" 
d="M194 451h-65l88 149h72l88 -149h-64l-60 93zM253 -8q-92 0 -153.5 60t-61.5 148t61.5 148t153.5 60t153.5 -60t61.5 -148t-61.5 -148t-153.5 -60zM253 80q50 0 85 35t35 85t-35 85t-85 35q-51 0 -85.5 -35t-34.5 -85t34.5 -85t85.5 -35z" />
    <glyph glyph-name="otilde" unicode="&#xf5;" horiz-adv-x="506" 
d="M304 458q-46 0 -77 45q-11 18 -25 18q-32 0 -32 -59h-61q0 52 24.5 85t66.5 33q45 0 77 -45q12 -18 26 -18q31 0 31 59h61q0 -52 -24 -85t-67 -33zM253 -8q-92 0 -153.5 60t-61.5 148t61.5 148t153.5 60t153.5 -60t61.5 -148t-61.5 -148t-153.5 -60zM253 80q50 0 85 35
t35 85t-35 85t-85 35q-51 0 -85.5 -35t-34.5 -85t34.5 -85t85.5 -35z" />
    <glyph glyph-name="odieresis" unicode="&#xf6;" horiz-adv-x="506" 
d="M174 472q-21 0 -36.5 15.5t-15.5 36.5q0 22 15.5 37t36.5 15q22 0 37.5 -15t15.5 -37q0 -21 -15.5 -36.5t-37.5 -15.5zM331 472q-21 0 -36.5 15.5t-15.5 36.5q0 22 15.5 37t36.5 15q22 0 37 -15t15 -37q0 -21 -15 -36.5t-37 -15.5zM253 -8q-92 0 -153.5 60t-61.5 148
t61.5 148t153.5 60t153.5 -60t61.5 -148t-61.5 -148t-153.5 -60zM253 80q50 0 85 35t35 85t-35 85t-85 35q-51 0 -85.5 -35t-34.5 -85t34.5 -85t85.5 -35z" />
    <glyph glyph-name="divide" unicode="&#xf7;" horiz-adv-x="581" 
d="M291 317q-21 0 -36 15t-15 36q0 20 15.5 35.5t35.5 15.5t35.5 -15.5t15.5 -35.5q0 -21 -15 -36t-36 -15zM51 195v50h480v-50h-480zM291 21q-21 0 -36 15t-15 36t15.5 36t35.5 15t35.5 -15t15.5 -36t-15 -36t-36 -15z" />
    <glyph glyph-name="oslash" unicode="&#xf8;" horiz-adv-x="506" 
d="M394 360q74 -61 74 -160q0 -88 -61.5 -148t-153.5 -60q-53 0 -99 22l-32 -46l-43 26l33 47q-74 61 -74 159q0 88 61.5 148t153.5 60q53 0 100 -22l31 45l42 -25zM133 200q0 -48 32 -83l135 194q-21 9 -47 9q-51 0 -85.5 -35t-34.5 -85zM253 80q50 0 85 35t35 85
q0 48 -33 83l-134 -194q21 -9 47 -9z" />
    <glyph glyph-name="ugrave" unicode="&#xf9;" horiz-adv-x="446" 
d="M263 451h-62l-123 149h97zM223 -8q-78 0 -123 42t-45 114v252h94v-240q0 -36 20.5 -58t53.5 -22t53.5 22t20.5 58v240h94v-252q0 -72 -45 -114t-123 -42z" />
    <glyph glyph-name="uacute" unicode="&#xfa;" horiz-adv-x="446" 
d="M189 451l88 149h97l-123 -149h-62zM223 -8q-78 0 -123 42t-45 114v252h94v-240q0 -36 20.5 -58t53.5 -22t53.5 22t20.5 58v240h94v-252q0 -72 -45 -114t-123 -42z" />
    <glyph glyph-name="ucircumflex" unicode="&#xfb;" horiz-adv-x="446" 
d="M167 451h-65l88 149h72l88 -149h-64l-60 93zM223 -8q-78 0 -123 42t-45 114v252h94v-240q0 -36 20.5 -58t53.5 -22t53.5 22t20.5 58v240h94v-252q0 -72 -45 -114t-123 -42z" />
    <glyph glyph-name="udieresis" unicode="&#xfc;" horiz-adv-x="446" 
d="M147 472q-21 0 -36.5 15.5t-15.5 36.5q0 22 15.5 37t36.5 15q22 0 37.5 -15t15.5 -37q0 -21 -15.5 -36.5t-37.5 -15.5zM304 472q-21 0 -36.5 15.5t-15.5 36.5q0 22 15.5 37t36.5 15q22 0 37 -15t15 -37q0 -21 -15 -36.5t-37 -15.5zM223 -8q-78 0 -123 42t-45 114v252h94
v-240q0 -36 20.5 -58t53.5 -22t53.5 22t20.5 58v240h94v-252q0 -72 -45 -114t-123 -42z" />
    <glyph glyph-name="yacute" unicode="&#xfd;" horiz-adv-x="431" 
d="M363 600l-123 -149h-62l88 149h97zM327 400h102l-257 -640h-100l95 233l-165 407h101l114 -296z" />
    <glyph glyph-name="thorn" unicode="&#xfe;" horiz-adv-x="536" 
d="M295 408q85 0 144 -60.5t59 -147.5t-59 -147.5t-144 -60.5q-74 0 -129 50v-282h-94v880h94v-282q55 50 129 50zM286 80q50 0 85 35t35 85t-35 85t-85 35t-85 -35t-35 -85t35 -85t85 -35z" />
    <glyph glyph-name="ydieresis" unicode="&#xff;" horiz-adv-x="431" 
d="M136 472q-21 0 -36.5 15.5t-15.5 36.5q0 22 15.5 37t36.5 15q22 0 37.5 -15t15.5 -37q0 -21 -15.5 -36.5t-37.5 -15.5zM293 472q-21 0 -36.5 15.5t-15.5 36.5q0 22 15.5 37t36.5 15q22 0 37 -15t15 -37q0 -21 -15 -36.5t-37 -15.5zM327 400h102l-257 -640h-100l95 233
l-165 407h101l114 -296z" />
    <glyph glyph-name="Amacron" unicode="&#x100;" horiz-adv-x="529" 
d="M379 735v-62h-228v62h228zM430 0l-43 127h-245l-43 -127h-106l217 600h109l217 -600h-106zM171 213h188l-94 280z" />
    <glyph glyph-name="amacron" unicode="&#x101;" horiz-adv-x="484" 
d="M349 535v-62h-228v62h228zM453 78h24v-78q-18 -8 -35 -8q-71 0 -102 63q-48 -63 -149 -63q-65 0 -103.5 31t-38.5 83q0 53 35.5 84t96.5 31h145v29q0 36 -25.5 57t-65.5 21t-65.5 -20t-25.5 -55h-95q0 70 52.5 112.5t133.5 42.5t133.5 -45.5t52.5 -118.5v-115
q0 -25 9 -38t23 -13zM215 63q42 0 72 22.5t39 60.5v9h-117q-28 0 -44.5 -12.5t-16.5 -33.5t18 -33.5t49 -12.5z" />
    <glyph glyph-name="Abreve" unicode="&#x102;" horiz-adv-x="529" 
d="M264 649q-62 0 -100 34.5t-38 96.5h55q0 -31 23.5 -53.5t59.5 -22.5q37 0 60.5 22.5t23.5 53.5h55q0 -62 -38 -96.5t-101 -34.5zM430 0l-43 127h-245l-43 -127h-106l217 600h109l217 -600h-106zM171 213h188l-94 280z" />
    <glyph glyph-name="abreve" unicode="&#x103;" horiz-adv-x="484" 
d="M234 449q-62 0 -100 34.5t-38 96.5h55q0 -31 23.5 -53.5t59.5 -22.5q37 0 60.5 22.5t23.5 53.5h55q0 -62 -38 -96.5t-101 -34.5zM453 78h24v-78q-18 -8 -35 -8q-71 0 -102 63q-48 -63 -149 -63q-65 0 -103.5 31t-38.5 83q0 53 35.5 84t96.5 31h145v29q0 36 -25.5 57
t-65.5 21t-65.5 -20t-25.5 -55h-95q0 70 52.5 112.5t133.5 42.5t133.5 -45.5t52.5 -118.5v-115q0 -25 9 -38t23 -13zM215 63q42 0 72 22.5t39 60.5v9h-117q-28 0 -44.5 -12.5t-16.5 -33.5t18 -33.5t49 -12.5z" />
    <glyph glyph-name="Aogonek" unicode="&#x104;" horiz-adv-x="529" 
d="M553 -119l30 -43q-47 -48 -116 -45q-44 3 -69.5 27.5t-25.5 63.5q0 65 91 116h-33l-43 127h-245l-43 -127h-106l217 600h109l217 -600q-52 -27 -77.5 -50t-25.5 -57q0 -24 13 -38t36 -14q45 0 71 40zM171 213h188l-94 280z" />
    <glyph glyph-name="aogonek" unicode="&#x105;" horiz-adv-x="484" 
d="M494 -119l30 -43q-47 -48 -116 -45q-44 3 -69.5 27.5t-25.5 63.5q0 65 89 115q-41 13 -62 56q-48 -63 -149 -63q-65 0 -103.5 31t-38.5 83q0 53 35.5 84t96.5 31h145v29q0 36 -25.5 57t-65.5 21t-65.5 -20t-25.5 -55h-95q0 70 52.5 112.5t133.5 42.5t133.5 -45.5
t52.5 -118.5v-115q0 -25 9 -38t23 -13h24v-78q-52 -27 -77.5 -50t-25.5 -57q0 -24 13 -38t36 -14q45 0 71 40zM215 63q42 0 72 22.5t39 60.5v9h-117q-28 0 -44.5 -12.5t-16.5 -33.5t18 -33.5t49 -12.5z" />
    <glyph glyph-name="Cacute" unicode="&#x106;" horiz-adv-x="650" 
d="M314 651l88 149h97l-123 -149h-62zM351 -8q-127 0 -217.5 90t-90.5 218t90.5 218t217.5 90q86 0 158 -44t112 -117l-84 -45q-27 50 -76.5 79.5t-109.5 29.5q-89 0 -150 -61t-61 -150t61 -150t150 -61q60 0 109.5 29.5t76.5 79.5l84 -45q-40 -73 -112 -117t-158 -44z" />
    <glyph glyph-name="cacute" unicode="&#x107;" horiz-adv-x="484" 
d="M208 453l88 149h97l-123 -149h-62zM253 -8q-92 0 -153.5 60t-61.5 148t61.5 148t153.5 60q78 0 134.5 -43.5t73.5 -113.5h-99q-14 31 -43.5 50t-65.5 19q-50 0 -85 -34.5t-35 -85.5t35 -85.5t85 -34.5q36 0 65.5 19t43.5 50h99q-17 -70 -73.5 -113.5t-134.5 -43.5z" />
    <glyph glyph-name="Cdotaccent" unicode="&#x10a;" horiz-adv-x="650" 
d="M351 655q-23 0 -39.5 16.5t-16.5 39.5q0 24 16.5 40.5t39.5 16.5t40 -16.5t17 -40.5q0 -23 -17 -39.5t-40 -16.5zM351 -8q-127 0 -217.5 90t-90.5 218t90.5 218t217.5 90q86 0 158 -44t112 -117l-84 -45q-27 50 -76.5 79.5t-109.5 29.5q-89 0 -150 -61t-61 -150t61 -150
t150 -61q60 0 109.5 29.5t76.5 79.5l84 -45q-40 -73 -112 -117t-158 -44z" />
    <glyph glyph-name="cdotaccent" unicode="&#x10b;" horiz-adv-x="484" 
d="M245 457q-23 0 -39.5 16.5t-16.5 39.5q0 24 16.5 40.5t39.5 16.5t40 -16.5t17 -40.5q0 -23 -17 -39.5t-40 -16.5zM253 -8q-92 0 -153.5 60t-61.5 148t61.5 148t153.5 60q78 0 134.5 -43.5t73.5 -113.5h-99q-14 31 -43.5 50t-65.5 19q-50 0 -85 -34.5t-35 -85.5t35 -85.5
t85 -34.5q36 0 65.5 19t43.5 50h99q-17 -70 -73.5 -113.5t-134.5 -43.5z" />
    <glyph glyph-name="Ccaron" unicode="&#x10c;" horiz-adv-x="650" 
d="M315 651l-88 149h65l59 -92l60 92h64l-88 -149h-72zM351 -8q-127 0 -217.5 90t-90.5 218t90.5 218t217.5 90q86 0 158 -44t112 -117l-84 -45q-27 50 -76.5 79.5t-109.5 29.5q-89 0 -150 -61t-61 -150t61 -150t150 -61q60 0 109.5 29.5t76.5 79.5l84 -45
q-40 -73 -112 -117t-158 -44z" />
    <glyph glyph-name="ccaron" unicode="&#x10d;" horiz-adv-x="484" 
d="M209 453l-88 149h65l59 -92l60 92h64l-88 -149h-72zM253 -8q-92 0 -153.5 60t-61.5 148t61.5 148t153.5 60q78 0 134.5 -43.5t73.5 -113.5h-99q-14 31 -43.5 50t-65.5 19q-50 0 -85 -34.5t-35 -85.5t35 -85.5t85 -34.5q36 0 65.5 19t43.5 50h99q-17 -70 -73.5 -113.5
t-134.5 -43.5z" />
    <glyph glyph-name="Dcaron" unicode="&#x10e;" horiz-adv-x="589" 
d="M210 651l-88 149h65l59 -92l60 92h64l-88 -149h-72zM66 0v600h180q124 0 212 -88t88 -212t-88 -212t-212 -88h-180zM163 91h83q86 0 144.5 59.5t58.5 149.5t-58.5 149.5t-144.5 59.5h-83v-418z" />
    <glyph glyph-name="dcaron" unicode="&#x10f;" horiz-adv-x="655" 
d="M370 358v354h95v-712h-95v42q-55 -50 -129 -50q-85 0 -144 60.5t-59 147.5t59 147.5t144 60.5q74 0 129 -50zM579 712h89l-100 -241h-56zM253 80q50 0 85 35t35 85t-35 85t-85 35t-85 -35t-35 -85t35 -85t85 -35z" />
    <glyph glyph-name="Dcroat" unicode="&#x110;" horiz-adv-x="589" 
d="M246 600q124 0 212 -88t88 -212t-88 -212t-212 -88h-180v267h-59v66h59v267h180zM246 91q86 0 144.5 59.5t58.5 149.5t-58.5 149.5t-144.5 59.5h-83v-176h99v-66h-99v-176h83z" />
    <glyph glyph-name="dcroat" unicode="&#x111;" horiz-adv-x="531" 
d="M516 571v-66h-51v-505h-95v42q-55 -50 -129 -50q-85 0 -144 60.5t-59 147.5t59 147.5t144 60.5q74 0 129 -50v147h-109v66h109v141h95v-141h51zM253 80q50 0 85 35t35 85t-35 85t-85 35t-85 -35t-35 -85t35 -85t85 -35z" />
    <glyph glyph-name="Emacron" unicode="&#x112;" horiz-adv-x="466" 
d="M357 735v-62h-228v62h228zM415 511h-246v-166h213v-90h-213v-166h246v-89h-344v600h344v-89z" />
    <glyph glyph-name="emacron" unicode="&#x113;" horiz-adv-x="504" 
d="M372 537v-62h-228v62h228zM468 202l-1 -17h-331q4 -51 36.5 -82.5t82.5 -31.5q39 0 68.5 18.5t42.5 50.5h95q-18 -67 -73.5 -107.5t-132.5 -40.5q-93 0 -155 59t-62 149t61.5 149t154.5 59q92 0 152.5 -58t61.5 -148zM255 328q-40 0 -69 -20.5t-42 -54.5h220
q-29 75 -109 75z" />
    <glyph glyph-name="Edotaccent" unicode="&#x116;" horiz-adv-x="466" 
d="M243 655q-23 0 -39.5 16.5t-16.5 39.5q0 24 16.5 40.5t39.5 16.5t40 -16.5t17 -40.5q0 -23 -17 -39.5t-40 -16.5zM415 511h-246v-166h213v-90h-213v-166h246v-89h-344v600h344v-89z" />
    <glyph glyph-name="edotaccent" unicode="&#x117;" horiz-adv-x="504" 
d="M258 457q-22 0 -39 16.5t-17 39.5q0 24 16.5 40.5t39.5 16.5t40 -16.5t17 -40.5q0 -23 -17 -39.5t-40 -16.5zM468 202l-1 -17h-331q4 -51 36.5 -82.5t82.5 -31.5q39 0 68.5 18.5t42.5 50.5h95q-18 -67 -73.5 -107.5t-132.5 -40.5q-93 0 -155 59t-62 149t61.5 149
t154.5 59q92 0 152.5 -58t61.5 -148zM255 328q-40 0 -69 -20.5t-42 -54.5h220q-29 75 -109 75z" />
    <glyph glyph-name="Eogonek" unicode="&#x118;" horiz-adv-x="466" 
d="M432 -119l30 -43q-47 -48 -116 -45q-44 3 -69.5 27.5t-25.5 63.5q0 65 91 116h-271v600h344v-89h-246v-166h213v-90h-213v-166h246v-89q-52 -27 -77.5 -50t-25.5 -57q0 -24 13 -38t36 -14q45 0 71 40z" />
    <glyph glyph-name="eogonek" unicode="&#x119;" horiz-adv-x="504" 
d="M468 202l-1 -17h-331q4 -51 36.5 -82.5t82.5 -31.5q39 0 68.5 18.5t42.5 50.5h95q-13 -48 -46 -83.5t-81 -51.5q-40 -22 -60 -43.5t-20 -51.5q0 -24 13 -38t36 -14q45 0 71 40l30 -43q-47 -48 -116 -45q-44 3 -69.5 27.5t-25.5 63.5q0 51 52 91q-90 4 -148.5 62.5
t-58.5 145.5q0 90 61.5 149t154.5 59q92 0 152.5 -58t61.5 -148zM255 328q-40 0 -69 -20.5t-42 -54.5h220q-29 75 -109 75z" />
    <glyph glyph-name="Ecaron" unicode="&#x11a;" horiz-adv-x="466" 
d="M279 651h-72l-88 149h65l59 -92l60 92h64zM415 511h-246v-166h213v-90h-213v-166h246v-89h-344v600h344v-89z" />
    <glyph glyph-name="ecaron" unicode="&#x11b;" horiz-adv-x="504" 
d="M294 453h-72l-88 149h65l59 -92l60 92h64zM468 202l-1 -17h-331q4 -51 36.5 -82.5t82.5 -31.5q39 0 68.5 18.5t42.5 50.5h95q-18 -67 -73.5 -107.5t-132.5 -40.5q-93 0 -155 59t-62 149t61.5 149t154.5 59q92 0 152.5 -58t61.5 -148zM255 328q-40 0 -69 -20.5t-42 -54.5
h220q-29 75 -109 75z" />
    <glyph glyph-name="Gbreve" unicode="&#x11e;" horiz-adv-x="705" 
d="M352 649q-62 0 -100 34.5t-38 96.5h55q0 -31 23.5 -53.5t59.5 -22.5q37 0 60.5 22.5t23.5 53.5h55q0 -62 -38 -96.5t-101 -34.5zM352 324h309v-24q0 -128 -90.5 -218t-217.5 -90q-128 0 -218 90t-90 218t90 218t218 90q86 0 158 -44t112 -117l-84 -45q-27 50 -76.5 79.5
t-109.5 29.5q-89 0 -150.5 -61t-61.5 -150t61.5 -150t150.5 -61q73 0 129 42.5t74 110.5h-204v82z" />
    <glyph glyph-name="gbreve" unicode="&#x11f;" horiz-adv-x="536" 
d="M255 449q-62 0 -100 34.5t-38 96.5h55q0 -31 23.5 -53.5t59.5 -22.5q37 0 60.5 22.5t23.5 53.5h55q0 -62 -38 -96.5t-101 -34.5zM373 400h96v-421q0 -98 -61.5 -159.5t-158.5 -61.5q-72 0 -126.5 36.5t-77.5 98.5l87 36q12 -38 43.5 -61t73.5 -23q54 0 89.5 37t35.5 94
v65q-54 -49 -128 -49q-85 0 -144 60.5t-59 147.5t59 147.5t144 60.5q74 0 127 -48v40zM257 80q50 0 85.5 35t35.5 85t-35.5 85t-85.5 35t-85 -35t-35 -85t35 -85t85 -35z" />
    <glyph glyph-name="Gdotaccent" unicode="&#x120;" horiz-adv-x="705" 
d="M353 655q-23 0 -39.5 16.5t-16.5 39.5q0 24 16.5 40.5t39.5 16.5t40 -16.5t17 -40.5q0 -23 -17 -39.5t-40 -16.5zM352 324h309v-24q0 -128 -90.5 -218t-217.5 -90q-128 0 -218 90t-90 218t90 218t218 90q86 0 158 -44t112 -117l-84 -45q-27 50 -76.5 79.5t-109.5 29.5
q-89 0 -150.5 -61t-61.5 -150t61.5 -150t150.5 -61q73 0 129 42.5t74 110.5h-204v82z" />
    <glyph glyph-name="gdotaccent" unicode="&#x121;" horiz-adv-x="536" 
d="M256 455q-22 0 -39 16.5t-17 39.5q0 24 16.5 40.5t39.5 16.5t40 -16.5t17 -40.5q0 -23 -17 -39.5t-40 -16.5zM373 400h96v-421q0 -98 -61.5 -159.5t-158.5 -61.5q-72 0 -126.5 36.5t-77.5 98.5l87 36q12 -38 43.5 -61t73.5 -23q54 0 89.5 37t35.5 94v65q-54 -49 -128 -49
q-85 0 -144 60.5t-59 147.5t59 147.5t144 60.5q74 0 127 -48v40zM257 80q50 0 85.5 35t35.5 85t-35.5 85t-85.5 35t-85 -35t-35 -85t35 -85t85 -35z" />
    <glyph glyph-name="Gcommaaccent" unicode="&#x122;" horiz-adv-x="705" 
d="M352 324h309v-24q0 -128 -90.5 -218t-217.5 -90q-128 0 -218 90t-90 218t90 218t218 90q86 0 158 -44t112 -117l-84 -45q-27 50 -76.5 79.5t-109.5 29.5q-89 0 -150.5 -61t-61.5 -150t61.5 -150t150.5 -61q73 0 129 42.5t74 110.5h-204v82zM247 -194l58 146h95l-100 -146
h-53z" />
    <glyph glyph-name="gcommaaccent" unicode="&#x123;" horiz-adv-x="536" 
d="M367 601l-58 -146h-95l100 146h53zM373 400h96v-421q0 -98 -61.5 -159.5t-158.5 -61.5q-72 0 -126.5 36.5t-77.5 98.5l87 36q12 -38 43.5 -61t73.5 -23q54 0 89.5 37t35.5 94v65q-54 -49 -128 -49q-85 0 -144 60.5t-59 147.5t59 147.5t144 60.5q74 0 127 -48v40zM257 80
q50 0 85.5 35t35.5 85t-35.5 85t-85.5 35t-85 -35t-35 -85t35 -85t85 -35z" />
    <glyph glyph-name="Hbar" unicode="&#x126;" horiz-adv-x="615" 
d="M599 494v-48h-50v-446h-98v255h-287v-255h-98v446h-51v48h51v106h98v-106h287v106h98v-106h50zM451 346v100h-287v-100h287z" />
    <glyph glyph-name="hbar" unicode="&#x127;" horiz-adv-x="467" 
d="M259 408q62 0 105.5 -44.5t43.5 -109.5v-254h-95v245q0 31 -21.5 53t-53.5 22t-54.5 -23.5t-22.5 -55.5v-241h-95v511h-53v66h53v135h95v-135h107v-66h-107v-140q43 37 98 37z" />
    <glyph glyph-name="Imacron" unicode="&#x12a;" horiz-adv-x="239" 
d="M5 673v62h228v-62h-228zM71 0v600h98v-600h-98z" />
    <glyph glyph-name="imacron" unicode="&#x12b;" horiz-adv-x="237" 
d="M5 473v62h228v-62h-228zM71 0v400h95v-400h-95z" />
    <glyph glyph-name="Iogonek" unicode="&#x12e;" horiz-adv-x="239" 
d="M186 -119l30 -43q-47 -48 -116 -45q-44 3 -69.5 27.5t-25.5 63.5q0 65 91 116h-25v600h98v-600q-52 -27 -77.5 -50t-25.5 -57q0 -24 13 -38t36 -14q45 0 71 40z" />
    <glyph glyph-name="iogonek" unicode="&#x12f;" horiz-adv-x="237" 
d="M119 455q-23 0 -39.5 16.5t-16.5 39.5q0 24 16.5 40.5t39.5 16.5t40 -16.5t17 -40.5q0 -23 -17 -39.5t-40 -16.5zM174 -119l30 -43q-47 -48 -116 -45q-44 3 -69.5 27.5t-25.5 63.5q0 65 91 116h-13v400h95v-400h-9q-52 -27 -77.5 -50t-25.5 -57q0 -24 13 -38t36 -14
q45 0 71 40z" />
    <glyph glyph-name="Idotaccent" unicode="&#x130;" horiz-adv-x="239" 
d="M119 655q-23 0 -39.5 16.5t-16.5 39.5q0 24 16.5 40.5t39.5 16.5t40 -16.5t17 -40.5q0 -23 -17 -39.5t-40 -16.5zM71 0v600h98v-600h-98z" />
    <glyph glyph-name="dotlessi" unicode="&#x131;" horiz-adv-x="237" 
d="M71 0v400h95v-400h-95z" />
    <glyph glyph-name="Kcommaaccent" unicode="&#x136;" horiz-adv-x="551" 
d="M279 328l286 -328h-133l-236 283h-32v-283h-98v600h98v-229h34l218 229h129zM173 -194l58 146h95l-100 -146h-53z" />
    <glyph glyph-name="kcommaaccent" unicode="&#x137;" horiz-adv-x="446" 
d="M265 220l196 -220h-125l-170 205v-205h-94v712h94v-472l161 160h118zM131 -194l58 146h95l-100 -146h-53z" />
    <glyph glyph-name="Lacute" unicode="&#x139;" horiz-adv-x="380" 
d="M263 800l-123 -149h-62l88 149h97zM164 91h211v-91h-309v600h98v-509z" />
    <glyph glyph-name="lacute" unicode="&#x13a;" horiz-adv-x="227" 
d="M76 763l88 149h97l-123 -149h-62zM66 0v712h95v-712h-95z" />
    <glyph glyph-name="Lcommaaccent" unicode="&#x13b;" horiz-adv-x="380" 
d="M164 91h211v-91h-309v600h98v-509zM115 -194l58 146h95l-100 -146h-53z" />
    <glyph glyph-name="lcommaaccent" unicode="&#x13c;" horiz-adv-x="227" 
d="M66 0v712h95v-712h-95zM60 -194h-53l58 146h95z" />
    <glyph glyph-name="Lcaron" unicode="&#x13d;" horiz-adv-x="398" 
d="M164 600v-509h211v-91h-309v600h98zM397 600l-100 -241h-56l67 241h89z" />
    <glyph glyph-name="lcaron" unicode="&#x13e;" horiz-adv-x="347" 
d="M66 0v712h95v-712h-95zM260 471h-56l67 241h89z" />
    <glyph glyph-name="ldot" unicode="&#x140;" horiz-adv-x="227" 
d="M66 0v712h95v-712h-95zM235 248q-17 0 -29 11.5t-12 29.5q0 17 12 29t29 12q16 0 28.5 -12.5t12.5 -28.5q0 -17 -12.5 -29t-28.5 -12z" />
    <glyph glyph-name="Lslash" unicode="&#x141;" horiz-adv-x="380" 
d="M164 91h211v-91h-309v206l-54 -57l-43 39l97 102v310h98v-206l53 56l44 -38l-97 -102v-219z" />
    <glyph glyph-name="lslash" unicode="&#x142;" horiz-adv-x="227" 
d="M257 462l-96 -101v-361h-95v262l-55 -58l-42 38l97 102v368h95v-268l52 55z" />
    <glyph glyph-name="Nacute" unicode="&#x143;" horiz-adv-x="660" 
d="M478 800l-123 -149h-62l88 149h97zM497 600h97v-600h-98l-332 446v-446h-98v600h98l333 -445v445z" />
    <glyph glyph-name="nacute" unicode="&#x144;" horiz-adv-x="469" 
d="M387 600l-123 -149h-62l88 149h97zM267 408q59 0 101 -43.5t42 -107.5v-257h-94v244q0 32 -22 54t-55 22t-55.5 -22t-22.5 -54v-244h-95v400h95v-39q44 47 106 47z" />
    <glyph glyph-name="Ncommaaccent" unicode="&#x145;" horiz-adv-x="660" 
d="M497 600h97v-600h-98l-332 446v-446h-98v600h98l333 -445v445zM224 -194l58 146h95l-100 -146h-53z" />
    <glyph glyph-name="ncommaaccent" unicode="&#x146;" horiz-adv-x="469" 
d="M267 408q59 0 101 -43.5t42 -107.5v-257h-94v244q0 32 -22 54t-55 22t-55.5 -22t-22.5 -54v-244h-95v400h95v-39q44 47 106 47zM133 -194l58 146h95l-100 -146h-53z" />
    <glyph glyph-name="Ncaron" unicode="&#x147;" horiz-adv-x="660" 
d="M366 651h-72l-88 149h65l59 -92l60 92h64zM497 600h97v-600h-98l-332 446v-446h-98v600h98l333 -445v445z" />
    <glyph glyph-name="ncaron" unicode="&#x148;" horiz-adv-x="469" 
d="M275 451h-72l-88 149h65l59 -92l60 92h64zM267 408q59 0 101 -43.5t42 -107.5v-257h-94v244q0 32 -22 54t-55 22t-55.5 -22t-22.5 -54v-244h-95v400h95v-39q44 47 106 47z" />
    <glyph glyph-name="Eng" unicode="&#x14a;" horiz-adv-x="660" 
d="M497 600h97v-600v-77q0 -72 -39 -102.5t-114 -29.5v72q27 0 41 12.5t14 53.5v71l-332 446v-446h-98v600h98l333 -445v445z" />
    <glyph glyph-name="eng" unicode="&#x14b;" horiz-adv-x="469" 
d="M264 408q59 0 102.5 -45t43.5 -109v-254v-87q0 -73 -37.5 -103t-111.5 -29v59q27 0 41 12.5t14 53.5v338q0 32 -22.5 54t-54.5 22q-33 0 -55.5 -22t-22.5 -54v-244h-95v400h95v-38q43 46 103 46z" />
    <glyph glyph-name="Omacron" unicode="&#x14c;" horiz-adv-x="702" 
d="M237 673v62h228v-62h-228zM351 -8q-127 0 -217.5 90t-90.5 218t90.5 218t217.5 90t217.5 -90t90.5 -218t-90.5 -218t-217.5 -90zM351 89q89 0 150 61t61 150t-61 150t-150 61t-150 -61t-61 -150t61 -150t150 -61z" />
    <glyph glyph-name="omacron" unicode="&#x14d;" horiz-adv-x="506" 
d="M139 473v62h228v-62h-228zM253 -8q-92 0 -153.5 60t-61.5 148t61.5 148t153.5 60t153.5 -60t61.5 -148t-61.5 -148t-153.5 -60zM253 80q50 0 85 35t35 85t-35 85t-85 35q-51 0 -85.5 -35t-34.5 -85t34.5 -85t85.5 -35z" />
    <glyph glyph-name="Ohungarumlaut" unicode="&#x150;" horiz-adv-x="702" 
d="M243 651l87 149h96l-122 -149h-61zM388 651l87 149h96l-122 -149h-61zM351 -8q-127 0 -217.5 90t-90.5 218t90.5 218t217.5 90t217.5 -90t90.5 -218t-90.5 -218t-217.5 -90zM351 89q89 0 150 61t61 150t-61 150t-150 61t-150 -61t-61 -150t61 -150t150 -61z" />
    <glyph glyph-name="ohungarumlaut" unicode="&#x151;" horiz-adv-x="506" 
d="M145 451l87 149h96l-122 -149h-61zM290 451l87 149h96l-122 -149h-61zM253 -8q-92 0 -153.5 60t-61.5 148t61.5 148t153.5 60t153.5 -60t61.5 -148t-61.5 -148t-153.5 -60zM253 80q50 0 85 35t35 85t-35 85t-85 35q-51 0 -85.5 -35t-34.5 -85t34.5 -85t85.5 -35z" />
    <glyph glyph-name="OE" unicode="&#x152;" horiz-adv-x="832" 
d="M781 512h-243v-168h209v-88h-209v-168h243v-88h-328v10q-48 -18 -102 -18q-127 0 -217.5 90t-90.5 218t90.5 218t217.5 90q54 0 102 -18v10h328v-88zM351 86q51 0 102 27v374q-51 27 -102 27q-89 0 -151.5 -62.5t-62.5 -151.5t62.5 -151.5t151.5 -62.5z" />
    <glyph glyph-name="oe" unicode="&#x153;" horiz-adv-x="842" 
d="M805 202l-1 -17h-331q4 -51 36.5 -82.5t82.5 -31.5q39 0 68.5 18.5t42.5 50.5h95q-18 -67 -73.5 -107.5t-132.5 -40.5q-108 0 -171 76q-61 -76 -168 -76q-92 0 -153.5 60t-61.5 148t61.5 148t153.5 60q107 0 168 -76q63 76 170 76q92 0 152.5 -58t61.5 -148zM592 328
q-40 0 -69 -20.5t-42 -54.5h220q-29 75 -109 75zM253 80q50 0 85 35t35 85t-35 85t-85 35q-51 0 -85.5 -35t-34.5 -85t34.5 -85t85.5 -35z" />
    <glyph glyph-name="Racute" unicode="&#x154;" horiz-adv-x="518" 
d="M409 800l-123 -149h-62l88 149h97zM344 261l172 -261h-110l-159 252h-83v-252h-98v600h235q73 0 123 -51t50 -125q0 -60 -36.5 -105.5t-93.5 -57.5zM164 337h125q39 0 64 24t25 62t-25 62t-64 24h-125v-172z" />
    <glyph glyph-name="racute" unicode="&#x155;" horiz-adv-x="317" 
d="M326 600l-123 -149h-62l88 149h97zM161 345q45 63 123 63q17 0 32 -3v-87q-20 2 -34 2q-52 0 -86.5 -32.5t-34.5 -84.5v-203h-95v400h95v-55z" />
    <glyph glyph-name="Rcommaaccent" unicode="&#x156;" horiz-adv-x="518" 
d="M344 261l172 -261h-110l-159 252h-83v-252h-98v600h235q73 0 123 -51t50 -125q0 -60 -36.5 -105.5t-93.5 -57.5zM164 337h125q39 0 64 24t25 62t-25 62t-64 24h-125v-172zM155 -194l58 146h95l-100 -146h-53z" />
    <glyph glyph-name="rcommaaccent" unicode="&#x157;" horiz-adv-x="317" 
d="M284 408q17 0 32 -3v-87q-20 2 -34 2q-52 0 -86.5 -32.5t-34.5 -84.5v-203h-95v400h95v-55q45 63 123 63zM7 -194l58 146h95l-100 -146h-53z" />
    <glyph glyph-name="Rcaron" unicode="&#x158;" horiz-adv-x="518" 
d="M297 651h-72l-88 149h65l59 -92l60 92h64zM344 261l172 -261h-110l-159 252h-83v-252h-98v600h235q73 0 123 -51t50 -125q0 -60 -36.5 -105.5t-93.5 -57.5zM164 337h125q39 0 64 24t25 62t-25 62t-64 24h-125v-172z" />
    <glyph glyph-name="rcaron" unicode="&#x159;" horiz-adv-x="317" 
d="M214 451h-72l-88 149h65l59 -92l60 92h64zM284 408q17 0 32 -3v-87q-20 2 -34 2q-52 0 -86.5 -32.5t-34.5 -84.5v-203h-95v400h95v-55q45 63 123 63z" />
    <glyph glyph-name="Sacute" unicode="&#x15a;" horiz-adv-x="454" 
d="M191 651l88 149h97l-123 -149h-62zM233 -8q-71 0 -127.5 35.5t-83.5 92.5l84 51q16 -39 49.5 -62t78.5 -23q43 0 70 21t27 57q0 35 -29.5 58t-71 38t-83 33.5t-71 55.5t-29.5 92q0 78 52 122.5t127 44.5q107 0 172 -80l-69 -63q-41 52 -103 52q-35 0 -58 -17.5t-23 -51.5
q0 -33 29.5 -55.5t71 -37.5t83 -34t71 -58.5t29.5 -98.5q0 -79 -56 -125.5t-140 -46.5z" />
    <glyph glyph-name="sacute" unicode="&#x15b;" horiz-adv-x="343" 
d="M144 451l88 149h97l-123 -149h-62zM179 -8q-51 0 -95 25.5t-58 66.5l77 35q9 -22 29 -33.5t44 -11.5q22 0 36 10.5t14 28.5q0 16 -13.5 26.5t-47.5 24.5q-56 20 -87.5 47.5t-31.5 75.5q0 52 37.5 86.5t93.5 34.5q40 0 75 -17.5t51 -43.5l-60 -49q-18 30 -60 30
q-43 0 -43 -36q0 -17 12 -26t46 -23q25 -10 42 -19t36.5 -24t29.5 -36.5t10 -48.5q0 -54 -38.5 -88.5t-98.5 -34.5z" />
    <glyph glyph-name="Scedilla" unicode="&#x15e;" horiz-adv-x="454" 
d="M429 164q0 -75 -51.5 -121t-129.5 -51l-22 -42q40 7 67.5 -13.5t27.5 -58.5q0 -36 -24.5 -61t-60.5 -25q-29 0 -56 16.5t-37 40.5l45 16q7 -10 21 -17.5t27 -7.5q16 0 26.5 11t10.5 27q0 24 -20.5 32t-49.5 -5l-38 23l36 66q-60 7 -107.5 41.5t-71.5 84.5l84 51
q16 -39 49.5 -62t78.5 -23q43 0 70 21t27 57q0 35 -29.5 58t-71 38t-83 33.5t-71 55.5t-29.5 92q0 78 52 122.5t127 44.5q107 0 172 -80l-69 -63q-41 52 -103 52q-35 0 -58 -17.5t-23 -51.5q0 -33 29.5 -55.5t71 -37.5t83 -34t71 -58.5t29.5 -98.5z" />
    <glyph glyph-name="scedilla" unicode="&#x15f;" horiz-adv-x="343" 
d="M316 115q0 -49 -32 -82.5t-85 -39.5l-22 -43q40 7 67.5 -13.5t27.5 -58.5q0 -36 -24.5 -61t-60.5 -25q-29 0 -56 16.5t-37 40.5l45 16q7 -10 21 -17.5t27 -7.5q16 0 26.5 11t10.5 27q0 24 -20.5 32t-49.5 -5l-38 23l36 66q-44 6 -79 30.5t-47 59.5l77 35q9 -22 29 -33.5
t44 -11.5q22 0 36 10.5t14 28.5q0 16 -13.5 26.5t-47.5 24.5q-56 20 -87.5 47.5t-31.5 75.5q0 52 37.5 86.5t93.5 34.5q40 0 75 -17.5t51 -43.5l-60 -49q-18 30 -60 30q-43 0 -43 -36q0 -17 12 -26t46 -23q25 -10 42 -19t36.5 -24t29.5 -36.5t10 -48.5z" />
    <glyph glyph-name="Scaron" unicode="&#x160;" horiz-adv-x="454" 
d="M192 651l-88 149h65l59 -92l60 92h64l-88 -149h-72zM233 -8q-71 0 -127.5 35.5t-83.5 92.5l84 51q16 -39 49.5 -62t78.5 -23q43 0 70 21t27 57q0 35 -29.5 58t-71 38t-83 33.5t-71 55.5t-29.5 92q0 78 52 122.5t127 44.5q107 0 172 -80l-69 -63q-41 52 -103 52
q-35 0 -58 -17.5t-23 -51.5q0 -33 29.5 -55.5t71 -37.5t83 -34t71 -58.5t29.5 -98.5q0 -79 -56 -125.5t-140 -46.5z" />
    <glyph glyph-name="scaron" unicode="&#x161;" horiz-adv-x="343" 
d="M145 451l-88 149h65l59 -92l60 92h64l-88 -149h-72zM179 -8q-51 0 -95 25.5t-58 66.5l77 35q9 -22 29 -33.5t44 -11.5q22 0 36 10.5t14 28.5q0 16 -13.5 26.5t-47.5 24.5q-56 20 -87.5 47.5t-31.5 75.5q0 52 37.5 86.5t93.5 34.5q40 0 75 -17.5t51 -43.5l-60 -49
q-18 30 -60 30q-43 0 -43 -36q0 -17 12 -26t46 -23q25 -10 42 -19t36.5 -24t29.5 -36.5t10 -48.5q0 -54 -38.5 -88.5t-98.5 -34.5z" />
    <glyph glyph-name="uni0162" unicode="&#x162;" horiz-adv-x="419" 
d="M258 0h-25l-26 -50q40 7 67.5 -13.5t27.5 -58.5q0 -36 -24.5 -61t-60.5 -25q-29 0 -56 16.5t-37 40.5l45 16q7 -10 21 -17.5t27 -7.5q16 0 26.5 11t10.5 27q0 24 -20.5 32t-49.5 -5l-38 23l39 72h-24v509h-159v91h415v-91h-159v-509z" />
    <glyph glyph-name="uni0163" unicode="&#x163;" horiz-adv-x="304" 
d="M216 -50q40 7 67.5 -13.5t27.5 -58.5q0 -36 -24.5 -61t-60.5 -25q-29 0 -56 16.5t-37 40.5l45 16q7 -10 21 -17.5t27 -7.5q16 0 26.5 11t10.5 27q0 24 -20.5 32t-49.5 -5l-38 23l36 67q-47 9 -78 45t-31 84v196h-66v80h66v164h95v-164h101v-80h-101v-185q0 -26 15 -41.5
t38 -15.5h46v-73q-10 -7 -37 -12z" />
    <glyph glyph-name="Tcaron" unicode="&#x164;" horiz-adv-x="419" 
d="M245 651h-72l-88 149h65l59 -92l60 92h64zM417 600v-91h-159v-509h-97v509h-159v91h415z" />
    <glyph glyph-name="tcaron" unicode="&#x165;" horiz-adv-x="379" 
d="M306 672h89l-100 -241h-56zM177 564v-164h101v-80h-101v-185q0 -26 15 -41.5t38 -15.5h46v-73q-19 -13 -58 -13q-55 0 -95.5 38.5t-40.5 93.5v196h-66v80h66v164h95z" />
    <glyph glyph-name="Tbar" unicode="&#x166;" horiz-adv-x="419" 
d="M417 509h-159v-176h78v-66h-78v-267h-97v267h-80v66h80v176h-159v91h415v-91z" />
    <glyph glyph-name="tbar" unicode="&#x167;" horiz-adv-x="304" 
d="M278 320h-101v-87h96v-66h-96v-32q0 -26 15 -41.5t38 -15.5h46v-73q-19 -13 -58 -13q-55 0 -95.5 38.5t-40.5 93.5v43h-64v66h64v87h-66v80h66v164h95v-164h101v-80z" />
    <glyph glyph-name="Umacron" unicode="&#x16a;" horiz-adv-x="601" 
d="M186 673v62h228v-62h-228zM300 -8q-102 0 -169.5 58t-67.5 145v405h98v-388q0 -56 39.5 -92.5t99.5 -36.5t100 37t40 92v388h98v-405q0 -87 -68 -145t-170 -58z" />
    <glyph glyph-name="umacron" unicode="&#x16b;" horiz-adv-x="446" 
d="M112 473v62h228v-62h-228zM223 -8q-78 0 -123 42t-45 114v252h94v-240q0 -36 20.5 -58t53.5 -22t53.5 22t20.5 58v240h94v-252q0 -72 -45 -114t-123 -42z" />
    <glyph glyph-name="Uring" unicode="&#x16e;" horiz-adv-x="601" 
d="M300 635q-37 0 -64 26.5t-27 63.5t26.5 63.5t64.5 26.5q37 0 63 -26.5t26 -63.5t-26 -63.5t-63 -26.5zM300 678q20 0 33.5 13.5t13.5 33.5t-14 34t-33 14t-32.5 -14t-13.5 -34t13 -33.5t33 -13.5zM300 -8q-102 0 -169.5 58t-67.5 145v405h98v-388q0 -56 39.5 -92.5
t99.5 -36.5t100 37t40 92v388h98v-405q0 -87 -68 -145t-170 -58z" />
    <glyph glyph-name="uring" unicode="&#x16f;" horiz-adv-x="446" 
d="M226 435q-37 0 -64 26.5t-27 63.5t26.5 63.5t64.5 26.5q37 0 63 -26.5t26 -63.5t-26 -63.5t-63 -26.5zM226 478q20 0 33.5 13.5t13.5 33.5t-14 34t-33 14t-32.5 -14t-13.5 -34t13 -33.5t33 -13.5zM223 -8q-78 0 -123 42t-45 114v252h94v-240q0 -36 20.5 -58t53.5 -22
t53.5 22t20.5 58v240h94v-252q0 -72 -45 -114t-123 -42z" />
    <glyph glyph-name="Uhungarumlaut" unicode="&#x170;" horiz-adv-x="601" 
d="M192 651l87 149h96l-122 -149h-61zM337 651l87 149h96l-122 -149h-61zM300 -8q-102 0 -169.5 58t-67.5 145v405h98v-388q0 -56 39.5 -92.5t99.5 -36.5t100 37t40 92v388h98v-405q0 -87 -68 -145t-170 -58z" />
    <glyph glyph-name="uhungarumlaut" unicode="&#x171;" horiz-adv-x="446" 
d="M118 451l87 149h96l-122 -149h-61zM263 451l87 149h96l-122 -149h-61zM223 -8q-78 0 -123 42t-45 114v252h94v-240q0 -36 20.5 -58t53.5 -22t53.5 22t20.5 58v240h94v-252q0 -72 -45 -114t-123 -42z" />
    <glyph glyph-name="Uogonek" unicode="&#x172;" horiz-adv-x="601" 
d="M440 600h98v-405q0 -63 -37.5 -112t-99.5 -73q-40 -22 -60 -43.5t-20 -51.5q0 -24 13 -38t36 -14q45 0 71 40l30 -43q-47 -48 -116 -45q-44 3 -69.5 27.5t-25.5 63.5q0 48 46 86h-6q-102 0 -169.5 58t-67.5 145v405h98v-388q0 -56 39.5 -92.5t99.5 -36.5t100 37t40 92
v388z" />
    <glyph glyph-name="uogonek" unicode="&#x173;" horiz-adv-x="446" 
d="M293 3q-61 -39 -61 -84q0 -24 13 -38t36 -14q45 0 71 40l30 -43q-47 -48 -116 -45q-44 3 -69.5 27.5t-25.5 63.5q0 46 41 82q-73 3 -115 44.5t-42 111.5v252h94v-240q0 -36 20.5 -58t53.5 -22t53.5 22t20.5 58v240h94v-252q0 -54 -25.5 -91.5t-72.5 -53.5z" />
    <glyph glyph-name="Wcircumflex" unicode="&#x174;" horiz-adv-x="813" 
d="M408 744l-59 -93h-65l88 149h72l88 -149h-64zM722 600h102l-175 -600h-110l-133 480l-131 -480h-109l-177 600h104l130 -452l128 452h88h23l129 -454z" />
    <glyph glyph-name="wcircumflex" unicode="&#x175;" horiz-adv-x="663" 
d="M332 544l-59 -93h-65l88 149h72l88 -149h-64zM555 400h105l-136 -400h-102l-90 271l-91 -271h-101l-138 400h107l86 -295l97 295h80l97 -297z" />
    <glyph glyph-name="Ycircumflex" unicode="&#x176;" horiz-adv-x="505" 
d="M253 744l-59 -93h-65l88 149h72l88 -149h-64zM511 600l-209 -316v-284h-98v282l-210 318h115l144 -226l145 226h113z" />
    <glyph glyph-name="ycircumflex" unicode="&#x177;" horiz-adv-x="431" 
d="M215 544l-59 -93h-65l88 149h72l88 -149h-64zM327 400h102l-257 -640h-100l95 233l-165 407h101l114 -296z" />
    <glyph glyph-name="Ydieresis" unicode="&#x178;" horiz-adv-x="505" 
d="M174 672q-21 0 -36.5 15.5t-15.5 36.5q0 22 15.5 37t36.5 15q22 0 37.5 -15t15.5 -37q0 -21 -15.5 -36.5t-37.5 -15.5zM331 672q-21 0 -36.5 15.5t-15.5 36.5q0 22 15.5 37t36.5 15q22 0 37 -15t15 -37q0 -21 -15 -36.5t-37 -15.5zM511 600l-209 -316v-284h-98v282
l-210 318h115l144 -226l145 226h113z" />
    <glyph glyph-name="Zacute" unicode="&#x179;" horiz-adv-x="520" 
d="M414 800l-123 -149h-62l88 149h97zM192 91h295v-91h-457l290 509h-265v91h426z" />
    <glyph glyph-name="zacute" unicode="&#x17a;" horiz-adv-x="401" 
d="M359 600l-123 -149h-62l88 149h97zM378 400l-199 -316h195v-84h-347l198 316h-180v84h333z" />
    <glyph glyph-name="Zdotaccent" unicode="&#x17b;" horiz-adv-x="520" 
d="M266 655q-22 0 -39 16.5t-17 39.5q0 24 16.5 40.5t39.5 16.5t40 -16.5t17 -40.5q0 -23 -17 -39.5t-40 -16.5zM192 91h295v-91h-457l290 509h-265v91h426z" />
    <glyph glyph-name="zdotaccent" unicode="&#x17c;" horiz-adv-x="401" 
d="M211 455q-23 0 -39.5 16.5t-16.5 39.5q0 24 16.5 40.5t39.5 16.5t40 -16.5t17 -40.5q0 -23 -17 -39.5t-40 -16.5zM378 400l-199 -316h195v-84h-347l198 316h-180v84h333z" />
    <glyph glyph-name="Zcaron" unicode="&#x17d;" horiz-adv-x="520" 
d="M302 651h-72l-88 149h65l59 -92l60 92h64zM192 91h295v-91h-457l290 509h-265v91h426z" />
    <glyph glyph-name="zcaron" unicode="&#x17e;" horiz-adv-x="401" 
d="M247 451h-72l-88 149h65l59 -92l60 92h64zM378 400l-199 -316h195v-84h-347l198 316h-180v84h333z" />
    <glyph glyph-name="florin" unicode="&#x192;" horiz-adv-x="384" 
d="M311 540q-31 0 -52 -20t-26 -53l-11 -67h110l-11 -72h-110l-84 -528h-84l83 528h-67l11 72h68l12 79q9 55 53 92t99 37q39 0 57 -14l-8 -67q-16 13 -40 13z" />
    <glyph glyph-name="uni01CD" unicode="&#x1cd;" horiz-adv-x="529" 
d="M301 651h-72l-88 149h65l59 -92l60 92h64zM430 0l-43 127h-245l-43 -127h-106l217 600h109l217 -600h-106zM171 213h188l-94 280z" />
    <glyph glyph-name="uni01CE" unicode="&#x1ce;" horiz-adv-x="484" 
d="M271 451h-72l-88 149h65l59 -92l60 92h64zM453 78h24v-78q-18 -8 -35 -8q-71 0 -102 63q-48 -63 -149 -63q-65 0 -103.5 31t-38.5 83q0 53 35.5 84t96.5 31h145v29q0 36 -25.5 57t-65.5 21t-65.5 -20t-25.5 -55h-95q0 70 52.5 112.5t133.5 42.5t133.5 -45.5t52.5 -118.5
v-115q0 -25 9 -38t23 -13zM215 63q42 0 72 22.5t39 60.5v9h-117q-28 0 -44.5 -12.5t-16.5 -33.5t18 -33.5t49 -12.5z" />
    <glyph glyph-name="uni01CF" unicode="&#x1cf;" horiz-adv-x="239" 
d="M83 651l-88 149h65l59 -92l60 92h64l-88 -149h-72zM71 0v600h98v-600h-98z" />
    <glyph glyph-name="uni01D0" unicode="&#x1d0;" horiz-adv-x="237" 
d="M83 451l-88 149h65l59 -92l60 92h64l-88 -149h-72zM71 0v400h95v-400h-95z" />
    <glyph glyph-name="uni01D1" unicode="&#x1d1;" horiz-adv-x="702" 
d="M315 651l-88 149h65l59 -92l60 92h64l-88 -149h-72zM351 -8q-127 0 -217.5 90t-90.5 218t90.5 218t217.5 90t217.5 -90t90.5 -218t-90.5 -218t-217.5 -90zM351 89q89 0 150 61t61 150t-61 150t-150 61t-150 -61t-61 -150t61 -150t150 -61z" />
    <glyph glyph-name="uni01D2" unicode="&#x1d2;" horiz-adv-x="506" 
d="M217 451l-88 149h65l59 -92l60 92h64l-88 -149h-72zM253 -8q-92 0 -153.5 60t-61.5 148t61.5 148t153.5 60t153.5 -60t61.5 -148t-61.5 -148t-153.5 -60zM253 80q50 0 85 35t35 85t-35 85t-85 35q-51 0 -85.5 -35t-34.5 -85t34.5 -85t85.5 -35z" />
    <glyph glyph-name="uni01D3" unicode="&#x1d3;" horiz-adv-x="601" 
d="M264 651l-88 149h65l59 -92l60 92h64l-88 -149h-72zM300 -8q-102 0 -169.5 58t-67.5 145v405h98v-388q0 -56 39.5 -92.5t99.5 -36.5t100 37t40 92v388h98v-405q0 -87 -68 -145t-170 -58z" />
    <glyph glyph-name="uni01D4" unicode="&#x1d4;" horiz-adv-x="446" 
d="M190 451l-88 149h65l59 -92l60 92h64l-88 -149h-72zM223 -8q-78 0 -123 42t-45 114v252h94v-240q0 -36 20.5 -58t53.5 -22t53.5 22t20.5 58v240h94v-252q0 -72 -45 -114t-123 -42z" />
    <glyph glyph-name="Scommaaccent" unicode="&#x218;" horiz-adv-x="454" 
d="M233 -8q-71 0 -127.5 35.5t-83.5 92.5l84 51q16 -39 49.5 -62t78.5 -23q43 0 70 21t27 57q0 35 -29.5 58t-71 38t-83 33.5t-71 55.5t-29.5 92q0 78 52 122.5t127 44.5q107 0 172 -80l-69 -63q-41 52 -103 52q-35 0 -58 -17.5t-23 -51.5q0 -33 29.5 -55.5t71 -37.5t83 -34
t71 -58.5t29.5 -98.5q0 -79 -56 -125.5t-140 -46.5zM175 -194h-53l58 146h95z" />
    <glyph glyph-name="scommaaccent" unicode="&#x219;" horiz-adv-x="343" 
d="M179 -8q-51 0 -95 25.5t-58 66.5l77 35q9 -22 29 -33.5t44 -11.5q22 0 36 10.5t14 28.5q0 16 -13.5 26.5t-47.5 24.5q-56 20 -87.5 47.5t-31.5 75.5q0 52 37.5 86.5t93.5 34.5q40 0 75 -17.5t51 -43.5l-60 -49q-18 30 -60 30q-43 0 -43 -36q0 -17 12 -26t46 -23
q25 -10 42 -19t36.5 -24t29.5 -36.5t10 -48.5q0 -54 -38.5 -88.5t-98.5 -34.5zM126 -194h-53l58 146h95z" />
    <glyph glyph-name="uni021A" unicode="&#x21a;" horiz-adv-x="419" 
d="M417 600v-91h-159v-509h-97v509h-159v91h415zM103 -194l58 146h95l-100 -146h-53z" />
    <glyph glyph-name="uni021B" unicode="&#x21b;" horiz-adv-x="304" 
d="M278 320h-101v-185q0 -26 15 -41.5t38 -15.5h46v-73q-19 -13 -58 -13q-55 0 -95.5 38.5t-40.5 93.5v196h-66v80h66v164h95v-164h101v-80zM112 -194l58 146h95l-100 -146h-53z" />
    <glyph glyph-name="uni0237" unicode="&#x237;" horiz-adv-x="227" 
d="M26 -240q-39 0 -59 13v73h47q22 0 37.5 15.5t15.5 41.5v497h94v-508q0 -55 -40 -93.5t-95 -38.5z" />
    <glyph glyph-name="circumflex" unicode="&#x2c6;" horiz-adv-x="70" 
d="M109 451h-65l88 149h72l88 -149h-64l-60 93z" />
    <glyph glyph-name="caron" unicode="&#x2c7;" horiz-adv-x="70" 
d="M132 451l-88 149h65l59 -92l60 92h64l-88 -149h-72z" />
    <glyph glyph-name="breve" unicode="&#x2d8;" horiz-adv-x="56" 
d="M240 449q-62 0 -100 34.5t-38 96.5h55q0 -31 23.5 -53.5t59.5 -22.5q37 0 60.5 22.5t23.5 53.5h55q0 -62 -38 -96.5t-101 -34.5z" />
    <glyph glyph-name="dotaccent" unicode="&#x2d9;" horiz-adv-x="64" 
d="M131 455q-23 0 -39.5 16.5t-16.5 39.5q0 24 16.5 40.5t39.5 16.5t40 -16.5t17 -40.5q0 -23 -17 -39.5t-40 -16.5z" />
    <glyph glyph-name="ring" unicode="&#x2da;" horiz-adv-x="58" 
d="M84 435q-37 0 -64 26.5t-27 63.5t26.5 63.5t64.5 26.5q37 0 63 -26.5t26 -63.5t-26 -63.5t-63 -26.5zM84 478q20 0 33.5 13.5t13.5 33.5t-14 34t-33 14t-32.5 -14t-13.5 -34t13 -33.5t33 -13.5z" />
    <glyph glyph-name="ogonek" unicode="&#x2db;" horiz-adv-x="61" 
d="M145 -207q-44 3 -69.5 27.5t-25.5 63.5q0 42 31.5 73t87.5 57l45 -14q-52 -27 -77.5 -50t-25.5 -57q0 -24 13 -38t36 -14q45 0 71 40l30 -43q-47 -48 -116 -45z" />
    <glyph glyph-name="tilde" unicode="&#x2dc;" horiz-adv-x="51" 
d="M213 482q-46 0 -77 45q-11 18 -25 18q-32 0 -32 -59h-61q0 52 24.5 85t66.5 33q45 0 77 -45q12 -18 26 -18q31 0 31 59h61q0 -52 -24 -85t-67 -33z" />
    <glyph glyph-name="hungarumlaut" unicode="&#x2dd;" horiz-adv-x="64" 
d="M19 451l88 149h97l-123 -149h-62z" />
    <glyph glyph-name="gravecomb" unicode="&#x300;" 
d="M-19 451h-62l-123 149h97z" />
    <glyph glyph-name="acutecomb" unicode="&#x301;" 
d="M-203 451l88 149h97l-123 -149h-62z" />
    <glyph glyph-name="uni0302" unicode="&#x302;" 
d="M-227 451h-65l88 149h72l88 -149h-64l-60 93z" />
    <glyph glyph-name="tildecomb" unicode="&#x303;" 
d="M-111 482q-46 0 -77 45q-11 18 -25 18q-32 0 -32 -59h-61q0 52 24.5 85t66.5 33q45 0 77 -45q12 -18 26 -18q31 0 31 59h61q0 -52 -24 -85t-67 -33z" />
    <glyph glyph-name="uni0304" unicode="&#x304;" 
d="M-264 473v62h228v-62h-228z" />
    <glyph glyph-name="uni0306" unicode="&#x306;" 
d="M-280 449q-62 0 -100 34.5t-38 96.5h55q0 -31 23.5 -53.5t59.5 -22.5q37 0 60.5 22.5t23.5 53.5h55q0 -62 -38 -96.5t-101 -34.5z" />
    <glyph glyph-name="uni0307" unicode="&#x307;" 
d="M-132 455q-22 0 -39 16.5t-17 39.5q0 24 16.5 40.5t39.5 16.5t40 -16.5t17 -40.5q0 -23 -17 -39.5t-40 -16.5z" />
    <glyph glyph-name="uni0308" unicode="&#x308;" 
d="M-261 472q-21 0 -36.5 15.5t-15.5 36.5q0 22 15.5 37t36.5 15q22 0 37.5 -15t15.5 -37q0 -21 -15.5 -36.5t-37.5 -15.5zM-104 472q-21 0 -36.5 15.5t-15.5 36.5q0 22 15.5 37t36.5 15q22 0 37 -15t15 -37q0 -21 -15 -36.5t-37 -15.5z" />
    <glyph glyph-name="uni030A" unicode="&#x30a;" 
d="M-82 435q-37 0 -64 26.5t-27 63.5t26.5 63.5t64.5 26.5q37 0 63 -26.5t26 -63.5t-26 -63.5t-63 -26.5zM-82 478q20 0 33.5 13.5t13.5 33.5t-14 34t-33 14t-32.5 -14t-13.5 -34t13 -33.5t33 -13.5z" />
    <glyph glyph-name="uni030B" unicode="&#x30b;" 
d="M-228 451l87 149h96l-122 -149h-61zM-83 451l87 149h96l-122 -149h-61z" />
    <glyph glyph-name="uni030C" unicode="&#x30c;" 
d="M-208 451l-88 149h65l59 -92l60 92h64l-88 -149h-72z" />
    <glyph glyph-name="uni0312" unicode="&#x312;" 
d="M-60 650h53l-58 -146h-95z" />
    <glyph glyph-name="dotbelowcomb" unicode="&#x323;" 
d="M-84 -200q-23 0 -39.5 17t-16.5 40t17 39.5t39 16.5q23 0 40 -16.5t17 -39.5t-17 -40t-40 -17z" />
    <glyph glyph-name="uni0326" unicode="&#x326;" 
d="M-139 -91h-53l58 146h95z" />
    <glyph glyph-name="uni0327" unicode="&#x327;" 
d="M-112 -208q-29 0 -56 16.5t-37 40.5l45 16q7 -10 21 -17.5t27 -7.5q16 0 26.5 11t10.5 27q0 24 -20.5 32t-49.5 -5l-38 23l39 72h48l-26 -50q40 7 67.5 -13.5t27.5 -58.5q0 -36 -24.5 -61t-60.5 -25z" />
    <glyph glyph-name="uni0328" unicode="&#x328;" 
d="M-113 -207q-44 3 -69.5 27.5t-25.5 63.5q0 42 31.5 73t87.5 57l45 -14q-52 -27 -77.5 -50t-25.5 -57q0 -24 13 -38t36 -14q45 0 71 40l30 -43q-47 -48 -116 -45z" />
    <glyph glyph-name="uni0335" unicode="&#x335;" 
d="M-394 172v66h255v-66h-255z" />
    <glyph glyph-name="uni0336" unicode="&#x336;" 
d="M-611 184v48h584v-48h-584z" />
    <glyph glyph-name="uni0337" unicode="&#x337;" 
d="M-395 96l238 251l42 -36l-239 -252z" />
    <glyph glyph-name="uni0338" unicode="&#x338;" 
d="M-513 -5l452 648l63 -38l-451 -648z" />
    <glyph glyph-name="uni0394" unicode="&#x394;" horiz-adv-x="620" 
d="M365 600l240 -600h-106h-427h-58l241 600h110zM153 85h313l-156 405z" />
    <glyph glyph-name="uni03A9" unicode="&#x3a9;" horiz-adv-x="708" 
d="M48 0v76h115v4q-42 38 -72 101.5t-30 138.5q0 121 82.5 201.5t212.5 80.5q131 0 210.5 -83t79.5 -198q0 -72 -30 -137.5t-74 -103.5v-4h117v-76h-248v56q58 32 96.5 96.5t38.5 151.5q0 92 -51 156.5t-138 64.5t-141.5 -62.5t-54.5 -159.5q0 -85 39.5 -152t95.5 -95v-56
h-248z" />
    <glyph glyph-name="uni03BC" unicode="&#x3bc;" horiz-adv-x="515" 
d="M342 400h94v-400h-94v51q-49 -59 -122 -59q-45 0 -86 26v-218h-70v600h94v-236q0 -37 26 -63t63 -26q40 0 67.5 26t27.5 63v236z" />
    <glyph glyph-name="pi" unicode="&#x3c0;" horiz-adv-x="568" 
d="M62 0q24 68 43 176.5t22 192.5q-76 0 -106 -11l-10 55q37 26 143 26h394l-7 -70h-75v-237q0 -86 12 -132h-86q-15 25 -15 124v245l-162 1q-4 -88 -23.5 -202t-43.5 -168h-86z" />
    <glyph glyph-name="Wgrave" unicode="&#x1e80;" horiz-adv-x="813" 
d="M445 651h-62l-123 149h97zM722 600h102l-175 -600h-110l-133 480l-131 -480h-109l-177 600h104l130 -452l128 452h88h23l129 -454z" />
    <glyph glyph-name="wgrave" unicode="&#x1e81;" horiz-adv-x="663" 
d="M369 451h-62l-123 149h97zM555 400h105l-136 -400h-102l-90 271l-91 -271h-101l-138 400h107l86 -295l97 295h80l97 -297z" />
    <glyph glyph-name="Wacute" unicode="&#x1e82;" horiz-adv-x="813" 
d="M556 800l-123 -149h-62l88 149h97zM722 600h102l-175 -600h-110l-133 480l-131 -480h-109l-177 600h104l130 -452l128 452h88h23l129 -454z" />
    <glyph glyph-name="wacute" unicode="&#x1e83;" horiz-adv-x="663" 
d="M480 600l-123 -149h-62l88 149h97zM555 400h105l-136 -400h-102l-90 271l-91 -271h-101l-138 400h107l86 -295l97 295h80l97 -297z" />
    <glyph glyph-name="Wdieresis" unicode="&#x1e84;" horiz-adv-x="813" 
d="M329 672q-21 0 -36.5 15.5t-15.5 36.5q0 22 15.5 37t36.5 15q22 0 37.5 -15t15.5 -37q0 -21 -15.5 -36.5t-37.5 -15.5zM486 672q-21 0 -36.5 15.5t-15.5 36.5q0 22 15.5 37t36.5 15q22 0 37 -15t15 -37q0 -21 -15 -36.5t-37 -15.5zM722 600h102l-175 -600h-110l-133 480
l-131 -480h-109l-177 600h104l130 -452l128 452h88h23l129 -454z" />
    <glyph glyph-name="wdieresis" unicode="&#x1e85;" horiz-adv-x="663" 
d="M253 472q-21 0 -36.5 15.5t-15.5 36.5q0 22 15.5 37t36.5 15q22 0 37.5 -15t15.5 -37q0 -21 -15.5 -36.5t-37.5 -15.5zM410 472q-21 0 -36.5 15.5t-15.5 36.5q0 22 15.5 37t36.5 15q22 0 37 -15t15 -37q0 -21 -15 -36.5t-37 -15.5zM555 400h105l-136 -400h-102l-90 271
l-91 -271h-101l-138 400h107l86 -295l97 295h80l97 -297z" />
    <glyph glyph-name="Ygrave" unicode="&#x1ef2;" horiz-adv-x="505" 
d="M290 651h-62l-123 149h97zM511 600l-209 -316v-284h-98v282l-210 318h115l144 -226l145 226h113z" />
    <glyph glyph-name="ygrave" unicode="&#x1ef3;" horiz-adv-x="431" 
d="M252 451h-62l-123 149h97zM327 400h102l-257 -640h-100l95 233l-165 407h101l114 -296z" />
    <glyph glyph-name="endash" unicode="&#x2013;" horiz-adv-x="497" 
d="M48 170v76h400v-76h-400z" />
    <glyph glyph-name="emdash" unicode="&#x2014;" horiz-adv-x="800" 
d="M0 170v76h800v-76h-800z" />
    <glyph glyph-name="quoteleft" unicode="&#x2018;" horiz-adv-x="189" 
d="M120 608h56l-67 -241h-89z" />
    <glyph glyph-name="quoteright" unicode="&#x2019;" horiz-adv-x="158" 
d="M91 370h-56l67 241h89z" />
    <glyph glyph-name="quotesinglbase" unicode="&#x201a;" horiz-adv-x="196" 
d="M80 -155h-56l67 241h89z" />
    <glyph glyph-name="quotedblleft" unicode="&#x201c;" horiz-adv-x="363" 
d="M130 608h56l-67 -241h-89zM287 608h56l-67 -241h-89z" />
    <glyph glyph-name="quotedblright" unicode="&#x201d;" horiz-adv-x="357" 
d="M233 391h-56l67 241h89zM73 390h-56l67 241h89z" />
    <glyph glyph-name="quotedblbase" unicode="&#x201e;" horiz-adv-x="352" 
d="M80 -155h-56l67 241h89zM235 -155h-56l67 241h89z" />
    <glyph glyph-name="dagger" unicode="&#x2020;" horiz-adv-x="544" 
d="M437 388v-61h-136v-463h-62v463h-132v61h132v148h62v-148h136z" />
    <glyph glyph-name="daggerdbl" unicode="&#x2021;" horiz-adv-x="544" 
d="M437 327h-136v-249h136v-61h-136v-153h-62v153h-132v61h132v249h-132v61h132v148h62v-148h136v-61z" />
    <glyph glyph-name="bullet" unicode="&#x2022;" horiz-adv-x="483" 
d="M242 115q-62 0 -106.5 43.5t-44.5 106.5q0 62 45 107t106 45q60 0 105 -45.5t45 -106.5q0 -62 -44.5 -106t-105.5 -44z" />
    <glyph glyph-name="ellipsis" unicode="&#x2026;" horiz-adv-x="697" 
d="M113 -8q-26 0 -45.5 19.5t-19.5 45.5t19.5 45.5t45.5 19.5t45.5 -19.5t19.5 -45.5t-19.5 -45.5t-45.5 -19.5zM355 -8q-26 0 -45.5 19.5t-19.5 45.5t19.5 45.5t45.5 19.5t45.5 -19.5t19.5 -45.5t-19.5 -45.5t-45.5 -19.5zM600 -8q-26 0 -45.5 19.5t-19.5 45.5t19.5 45.5
t45.5 19.5t45.5 -19.5t19.5 -45.5t-19.5 -45.5t-45.5 -19.5z" />
    <glyph glyph-name="perthousand" unicode="&#x2030;" horiz-adv-x="918" 
d="M165 336q-49 0 -84 40t-35 96t35 96t84 40t84 -40t35 -96t-35 -96t-84 -40zM69 0l407 600h98l-407 -600h-98zM165 408q19 0 33.5 18.5t14.5 45.5t-14.5 45.5t-33.5 18.5t-33 -18.5t-14 -45.5t14 -45.5t33 -18.5zM478 -8q-49 0 -84 40t-35 96t35 96t84 40q50 0 84.5 -39.5
t34.5 -96.5t-34.5 -96.5t-84.5 -39.5zM757 -8q-50 0 -85 40t-35 96t35 96t85 40q49 0 84 -40t35 -96t-35 -96t-84 -40zM478 64q19 0 33 18.5t14 45.5t-14 45.5t-33 18.5t-33 -18.5t-14 -45.5t14 -45.5t33 -18.5zM756 64q19 0 33 18.5t14 45.5t-14 45.5t-33 18.5t-33 -18.5
t-14 -45.5t14 -45.5t33 -18.5z" />
    <glyph glyph-name="guilsinglleft" unicode="&#x2039;" horiz-adv-x="300" 
d="M165 76l-122 147l122 147h77l-122 -147l122 -147h-77z" />
    <glyph glyph-name="guilsinglright" unicode="&#x203a;" horiz-adv-x="300" 
d="M59 76l121 147l-121 147h76l122 -147l-122 -147h-76z" />
    <glyph glyph-name="fraction" unicode="&#x2044;" horiz-adv-x="455" 
d="M-19 0l418 600h74l-418 -600h-74z" />
    <glyph glyph-name="Euro" unicode="&#x20ac;" horiz-adv-x="606" 
d="M171 202q28 -55 80 -88t116 -33q88 0 152 62v-108q-75 -43 -152 -43q-102 0 -182 58t-111 152h-65v62h52q-2 24 -2 36q0 11 2 33h-52v62h65q30 95 110 154t183 59q77 0 152 -43l-27 -87q-57 41 -125 41q-65 0 -117.5 -34t-79.5 -90h296l-19 -62h-296q-2 -22 -2 -33
q0 -18 3 -36h274l-20 -62h-235z" />
    <glyph glyph-name="uni2113" unicode="&#x2113;" horiz-adv-x="488" 
d="M271 -5q-74 0 -114.5 41t-48.5 105q0 6 -1 8q-9 -5 -26.5 -18.5l-25.5 -19.5l-25 50l39.5 30.5l36.5 27.5v221q0 112 44.5 164t113.5 52q63 0 95.5 -42t32.5 -105q0 -75 -50 -149.5t-147 -159.5v-25q1 -51 29 -79t68 -28t74.5 25t55.5 61l41 -38q-68 -121 -192 -121z
M194 282q133 133 133 226q0 85 -61 85q-29 0 -50.5 -34t-21.5 -108v-169z" />
    <glyph glyph-name="trademark" unicode="&#x2122;" horiz-adv-x="659" 
d="M35 556v44h197v-44h-74v-236h-51v236h-72zM532 600h53v-280h-50v201l-99 -147l-99 146v-200h-50v280h54l95 -141z" />
    <glyph glyph-name="estimated" unicode="&#x212e;" horiz-adv-x="753" 
d="M375 -7q-141 0 -241 89.5t-100 216.5q0 128 100 218.5t241 90.5q142 0 242.5 -90.5t100.5 -218.5v-8h-554q-5 0 -5 -3v-168q0 -9 8 -19q88 -91 209 -91q132 0 221 102h49q-47 -55 -118 -87t-153 -32zM164 308h425q3 0 3 6v168q0 13 -8 20q-90 88 -208 88t-209 -91
q-8 -10 -8 -21v-164q0 -6 5 -6z" />
    <glyph glyph-name="partialdiff" unicode="&#x2202;" horiz-adv-x="454" 
d="M139 567q115 22 194.5 -67.5t78.5 -237.5q-1 -110 -59.5 -184.5t-143.5 -74.5q-101 0 -142.5 69t-2.5 172q33 90 102.5 127t145.5 10q-22 73 -69 106.5t-104 12.5v67zM328 262q0 32 -2 47q-58 35 -107.5 12.5t-77.5 -98.5q-24 -64 -3.5 -111.5t71.5 -47.5q47 0 82.5 58.5
t36.5 139.5z" />
    <glyph glyph-name="emptyset" unicode="&#x2205;" horiz-adv-x="660" 
d="M512 388q57 -67 57 -155q0 -99 -70 -169t-169 -70q-88 0 -155 57l-35 -35l-27 27l35 35q-57 66 -57 155q0 99 70 169t169 70q88 0 155 -57l35 34l26 -26zM166 233q0 -57 35 -102l231 230q-44 36 -102 36q-68 0 -116 -48t-48 -116zM330 69q68 0 116 48t48 116
q0 58 -36 102l-230 -231q45 -35 102 -35z" />
    <glyph glyph-name="product" unicode="&#x220f;" horiz-adv-x="614" 
d="M571 562v-66h-57v-592h-66v592h-282v-592h-67v592h-56v66h528z" />
    <glyph glyph-name="summation" unicode="&#x2211;" horiz-adv-x="614" 
d="M75 -94v55l282 273l-282 272v56h464v-71h-344l261 -257l-261 -257h344v-72z" />
    <glyph glyph-name="minus" unicode="&#x2212;" horiz-adv-x="526" 
d="M51 204v74h424v-74h-424z" />
    <glyph glyph-name="radical" unicode="&#x221a;" horiz-adv-x="603" 
d="M203 -62l-89 275h-55v61h99l78 -238l275 577l56 -24l-311 -651h-53z" />
    <glyph glyph-name="infinity" unicode="&#x221e;" horiz-adv-x="631" 
d="M169 109q-50 0 -83 35t-35 89q2 54 35 89t83 35q71 0 147 -79q74 79 146 79q53 0 85 -33.5t33 -90.5q-1 -57 -33 -90.5t-85 -33.5q-71 0 -146 78q-76 -78 -147 -78zM169 170q48 0 106 63q-60 63 -106 63q-24 0 -40.5 -18t-16.5 -45t16.5 -45t40.5 -18zM462 170
q24 0 40 17.5t17 45.5q-1 28 -17 45.5t-40 17.5q-46 0 -106 -63q60 -63 106 -63z" />
    <glyph glyph-name="integral" unicode="&#x222b;" horiz-adv-x="386" 
d="M93 -151q-37 0 -54 27.5t-2 67.5h53q-4 -22 -1.5 -30.5t13.5 -8.5q17 0 19 19l94 594q5 32 30 53.5t56 21.5q36 0 53 -27.5t2 -67.5h-53q4 22 1.5 30.5t-13.5 8.5q-15 0 -20 -19l-94 -594q-5 -33 -29 -54t-55 -21z" />
    <glyph glyph-name="approxequal" unicode="&#x2248;" horiz-adv-x="489" 
d="M328 253q-27 0 -51.5 12.5t-33.5 21t-26 27.5q-27 27 -49 27q-27 -1 -42.5 -23.5t-15.5 -57.5h-66q-1 66 33 106.5t92 40.5q57 0 102 -58q28 -32 52 -32q25 0 40.5 22t15.5 58h66q0 -63 -31.5 -103.5t-85.5 -40.5zM328 84q-27 0 -51.5 12.5t-33.5 21t-26 27.5
q-26 28 -49 27q-27 -1 -42.5 -23t-15.5 -57h-66q-1 66 33 106.5t92 40.5q56 0 102 -58q10 -12 14.5 -16.5t15 -10.5t22.5 -6q25 0 40.5 21.5t15.5 59.5h66q0 -64 -31.5 -104.5t-85.5 -40.5z" />
    <glyph glyph-name="notequal" unicode="&#x2260;" horiz-adv-x="581" 
d="M531 259h-167l-80 -94h247v-61h-299l-85 -99h-55l85 99h-126v61h178l80 94h-258v61h310l73 85h55l-73 -85h115v-61z" />
    <glyph glyph-name="lessequal" unicode="&#x2264;" horiz-adv-x="639" 
d="M540 571v-78l-363 -163l363 -164v-79l-441 200v85zM99 0v55h441v-55h-441z" />
    <glyph glyph-name="greaterequal" unicode="&#x2265;" horiz-adv-x="639" 
d="M99 571l441 -199v-85l-441 -200v79l363 164l-363 163v78zM99 0v55h441v-55h-441z" />
    <glyph glyph-name="lozenge" unicode="&#x25ca;" horiz-adv-x="633" 
d="M316 42l-241 240l241 242l241 -241zM317 146l136 137l-136 137l-137 -138z" />
    <glyph glyph-name="uniF8FF" unicode="&#xf8ff;" horiz-adv-x="757" 
d="M379 0q-126 0 -215 89.5t-89 214.5q0 126 89 215t215 89t215 -89t89 -215q0 -125 -89 -214.5t-215 -89.5zM379 29q114 0 194.5 81t80.5 194q0 114 -80.5 194.5t-194.5 80.5t-195 -80.5t-81 -194.5q0 -113 81 -194t195 -81zM538 174q-6 0 -10 4l-116 116q-9 11 0 20
l116 116q11 11 20 0q4 -4 4 -10t-4 -10l-105 -106l105 -106q9 -7 0 -20q-3 -4 -10 -4zM219 174q-14 0 -14 14v232q0 14 14 14q15 0 15 -14v-232q0 -14 -15 -14zM379 174q-15 0 -15 14v232q0 14 15 14q14 0 14 -14v-232q0 -14 -14 -14zM263 290q-15 0 -15 14t15 14h72
q15 0 15 -14t-15 -14h-72z" />
    <glyph glyph-name="i.loclTRK" horiz-adv-x="237" 
d="M119 455q-23 0 -39.5 16.5t-16.5 39.5q0 24 16.5 40.5t39.5 16.5t40 -16.5t17 -40.5q0 -23 -17 -39.5t-40 -16.5zM71 0v400h95v-400h-95z" />
    </font>
</defs>
</svg>
